<svg width="400" height="400" viewBox="0 0 400 400" fill="none" xmlns="http://www.w3.org/2000/svg">
<path d="M273.047 137.891H254.727C250.742 137.891 246.953 139.805 244.609 143.086L183.203 228.242L155.391 189.648C153.047 186.406 149.297 184.453 145.273 184.453H126.953C124.414 184.453 122.93 187.344 124.414 189.414L173.086 256.914C174.236 258.519 175.751 259.827 177.508 260.729C179.264 261.631 181.209 262.101 183.184 262.101C185.158 262.101 187.104 261.631 188.86 260.729C190.616 259.827 192.131 258.519 193.281 256.914L275.547 142.852C277.07 140.781 275.586 137.891 273.047 137.891Z" fill="#5BF18E"/>
<path d="M200 25C103.359 25 25 103.359 25 200C25 296.641 103.359 375 200 375C296.641 375 375 296.641 375 200C375 103.359 296.641 25 200 25ZM200 345.312C119.766 345.312 54.6875 280.234 54.6875 200C54.6875 119.766 119.766 54.6875 200 54.6875C280.234 54.6875 345.312 119.766 345.312 200C345.312 280.234 280.234 345.312 200 345.312Z" fill="#5BF18E"/>
</svg>
