<svg width="48" height="48" viewBox="0 0 48 48" fill="none" xmlns="http://www.w3.org/2000/svg">
<path d="M24 4C20.0444 4 16.1776 5.17298 12.8886 7.37061C9.59962 9.56824 7.03617 12.6918 5.52242 16.3463C4.00867 20.0009 3.6126 24.0222 4.3843 27.9018C5.15601 31.7814 7.06082 35.3451 9.85787 38.1421C12.6549 40.9392 16.2186 42.844 20.0982 43.6157C23.9778 44.3874 27.9992 43.9913 31.6537 42.4776C35.3082 40.9638 38.4318 38.4004 40.6294 35.1114C42.827 31.8224 44 27.9556 44 24C44 21.3736 43.4827 18.7728 42.4776 16.3463C41.4725 13.9198 39.9993 11.715 38.1421 9.85786C36.285 8.00069 34.0802 6.5275 31.6537 5.52241C29.2272 4.51732 26.6264 4 24 4ZM24 40C20.8355 40 17.7421 39.0616 15.1109 37.3035C12.4797 35.5454 10.4289 33.0466 9.21794 30.1229C8.00694 27.1993 7.69008 23.9823 8.30745 20.8786C8.92481 17.7749 10.4487 14.9239 12.6863 12.6863C14.9239 10.4487 17.7749 8.9248 20.8786 8.30744C23.9823 7.69007 27.1993 8.00693 30.1229 9.21793C33.0466 10.4289 35.5454 12.4797 37.3035 15.1109C39.0616 17.7421 40 20.8355 40 24C40 28.2435 38.3143 32.3131 35.3137 35.3137C32.3131 38.3143 28.2435 40 24 40Z" fill="white"/>
<path d="M29.42 18.5799C29.2341 18.3924 29.0129 18.2436 28.7692 18.1421C28.5254 18.0406 28.264 17.9883 28 17.9883C27.736 17.9883 27.4746 18.0406 27.2308 18.1421C26.9871 18.2436 26.7659 18.3924 26.58 18.5799L24 21.1799L21.42 18.5799C21.0434 18.2033 20.5326 17.9917 20 17.9917C19.4674 17.9917 18.9566 18.2033 18.58 18.5799C18.2034 18.9565 17.9918 19.4673 17.9918 19.9999C17.9918 20.5325 18.2034 21.0433 18.58 21.4199L21.18 23.9999L18.58 26.5799C18.3925 26.7658 18.2438 26.987 18.1422 27.2307C18.0407 27.4744 17.9884 27.7359 17.9884 27.9999C17.9884 28.2639 18.0407 28.5253 18.1422 28.769C18.2438 29.0127 18.3925 29.234 18.58 29.4199C18.7659 29.6073 18.9871 29.7561 19.2308 29.8577C19.4746 29.9592 19.736 30.0115 20 30.0115C20.264 30.0115 20.5254 29.9592 20.7692 29.8577C21.0129 29.7561 21.2341 29.6073 21.42 29.4199L24 26.8199L26.58 29.4199C26.7659 29.6073 26.9871 29.7561 27.2308 29.8577C27.4746 29.9592 27.736 30.0115 28 30.0115C28.264 30.0115 28.5254 29.9592 28.7692 29.8577C29.0129 29.7561 29.2341 29.6073 29.42 29.4199C29.6075 29.234 29.7562 29.0127 29.8578 28.769C29.9593 28.5253 30.0116 28.2639 30.0116 27.9999C30.0116 27.7359 29.9593 27.4744 29.8578 27.2307C29.7562 26.987 29.6075 26.7658 29.42 26.5799L26.82 23.9999L29.42 21.4199C29.6075 21.234 29.7562 21.0128 29.8578 20.769C29.9593 20.5253 30.0116 20.2639 30.0116 19.9999C30.0116 19.7359 29.9593 19.4744 29.8578 19.2307C29.7562 18.987 29.6075 18.7658 29.42 18.5799Z" fill="white"/>
</svg>
