<svg width="49" height="61" viewBox="0 0 49 61" fill="none" xmlns="http://www.w3.org/2000/svg">
<path d="M13.5925 44.6607V46.8393C13.5925 47.1343 13.4846 47.3896 13.2687 47.6052C13.0528 47.8208 12.7972 47.9286 12.5018 47.9286H10.3203C10.0249 47.9286 9.76921 47.8208 9.55334 47.6052C9.33746 47.3896 9.22952 47.1343 9.22952 46.8393V44.6607C9.22952 44.3657 9.33746 44.1104 9.55334 43.8948C9.76921 43.6792 10.0249 43.5714 10.3203 43.5714H12.5018C12.7972 43.5714 13.0528 43.6792 13.2687 43.8948C13.4846 44.1104 13.5925 44.3657 13.5925 44.6607ZM13.5925 35.9464V38.125C13.5925 38.42 13.4846 38.6753 13.2687 38.8909C13.0528 39.1065 12.7972 39.2143 12.5018 39.2143H10.3203C10.0249 39.2143 9.76921 39.1065 9.55334 38.8909C9.33746 38.6753 9.22952 38.42 9.22952 38.125V35.9464C9.22952 35.6514 9.33746 35.3961 9.55334 35.1805C9.76921 34.9649 10.0249 34.8571 10.3203 34.8571H12.5018C12.7972 34.8571 13.0528 34.9649 13.2687 35.1805C13.4846 35.3961 13.5925 35.6514 13.5925 35.9464ZM22.3184 35.9464V38.125C22.3184 38.42 22.2105 38.6753 21.9946 38.8909C21.7788 39.1065 21.5231 39.2143 21.2277 39.2143H19.0462C18.7508 39.2143 18.4952 39.1065 18.2793 38.8909C18.0634 38.6753 17.9555 38.42 17.9555 38.125V35.9464C17.9555 35.6514 18.0634 35.3961 18.2793 35.1805C18.4952 34.9649 18.7508 34.8571 19.0462 34.8571H21.2277C21.5231 34.8571 21.7788 34.9649 21.9946 35.1805C22.2105 35.3961 22.3184 35.6514 22.3184 35.9464ZM13.5925 27.2321V29.4107C13.5925 29.7057 13.4846 29.961 13.2687 30.1766C13.0528 30.3922 12.7972 30.5 12.5018 30.5H10.3203C10.0249 30.5 9.76921 30.3922 9.55334 30.1766C9.33746 29.961 9.22952 29.7057 9.22952 29.4107V27.2321C9.22952 26.9371 9.33746 26.6818 9.55334 26.4662C9.76921 26.2507 10.0249 26.1429 10.3203 26.1429H12.5018C12.7972 26.1429 13.0528 26.2507 13.2687 26.4662C13.4846 26.6818 13.5925 26.9371 13.5925 27.2321ZM39.7704 44.6607V46.8393C39.7704 47.1343 39.6624 47.3896 39.4465 47.6052C39.2307 47.8208 38.975 47.9286 38.6796 47.9286H36.4981C36.2027 47.9286 35.9471 47.8208 35.7312 47.6052C35.5153 47.3896 35.4074 47.1343 35.4074 46.8393V44.6607C35.4074 44.3657 35.5153 44.1104 35.7312 43.8948C35.9471 43.6792 36.2027 43.5714 36.4981 43.5714H38.6796C38.975 43.5714 39.2307 43.6792 39.4465 43.8948C39.6624 44.1104 39.7704 44.3657 39.7704 44.6607ZM31.0444 35.9464V38.125C31.0444 38.42 30.9365 38.6753 30.7206 38.8909C30.5047 39.1065 30.2491 39.2143 29.9537 39.2143H27.7722C27.4768 39.2143 27.2211 39.1065 27.0052 38.8909C26.7894 38.6753 26.6814 38.42 26.6814 38.125V35.9464C26.6814 35.6514 26.7894 35.3961 27.0052 35.1805C27.2211 34.9649 27.4768 34.8571 27.7722 34.8571H29.9537C30.2491 34.8571 30.5047 34.9649 30.7206 35.1805C30.9365 35.3961 31.0444 35.6514 31.0444 35.9464ZM22.3184 27.2321V29.4107C22.3184 29.7057 22.2105 29.961 21.9946 30.1766C21.7788 30.3922 21.5231 30.5 21.2277 30.5H19.0462C18.7508 30.5 18.4952 30.3922 18.2793 30.1766C18.0634 29.961 17.9555 29.7057 17.9555 29.4107V27.2321C17.9555 26.9371 18.0634 26.6818 18.2793 26.4662C18.4952 26.2507 18.7508 26.1429 19.0462 26.1429H21.2277C21.5231 26.1429 21.7788 26.2507 21.9946 26.4662C22.2105 26.6818 22.3184 26.9371 22.3184 27.2321ZM39.7704 35.9464V38.125C39.7704 38.42 39.6624 38.6753 39.4465 38.8909C39.2307 39.1065 38.975 39.2143 38.6796 39.2143H36.4981C36.2027 39.2143 35.9471 39.1065 35.7312 38.8909C35.5153 38.6753 35.4074 38.42 35.4074 38.125V35.9464C35.4074 35.6514 35.5153 35.3961 35.7312 35.1805C35.9471 34.9649 36.2027 34.8571 36.4981 34.8571H38.6796C38.975 34.8571 39.2307 34.9649 39.4465 35.1805C39.6624 35.3961 39.7704 35.6514 39.7704 35.9464ZM31.0444 27.2321V29.4107C31.0444 29.7057 30.9365 29.961 30.7206 30.1766C30.5047 30.3922 30.2491 30.5 29.9537 30.5H27.7722C27.4768 30.5 27.2211 30.3922 27.0052 30.1766C26.7894 29.961 26.6814 29.7057 26.6814 29.4107V27.2321C26.6814 26.9371 26.7894 26.6818 27.0052 26.4662C27.2211 26.2507 27.4768 26.1429 27.7722 26.1429H29.9537C30.2491 26.1429 30.5047 26.2507 30.7206 26.4662C30.9365 26.6818 31.0444 26.9371 31.0444 27.2321ZM39.7704 27.2321V29.4107C39.7704 29.7057 39.6624 29.961 39.4465 30.1766C39.2307 30.3922 38.975 30.5 38.6796 30.5H36.4981C36.2027 30.5 35.9471 30.3922 35.7312 30.1766C35.5153 29.961 35.4074 29.7057 35.4074 29.4107V27.2321C35.4074 26.9371 35.5153 26.6818 35.7312 26.4662C35.9471 26.2507 36.2027 26.1429 36.4981 26.1429H38.6796C38.975 26.1429 39.2307 26.2507 39.4465 26.4662C39.6624 26.6818 39.7704 26.9371 39.7704 27.2321ZM31.0444 56.6429H44.1333V17.4286H35.4074V18.5179C35.4074 19.4256 35.0892 20.1972 34.453 20.8326C33.8167 21.468 33.0441 21.7857 32.1351 21.7857H16.8647C15.9558 21.7857 15.1832 21.468 14.5469 20.8326C13.9106 20.1972 13.5925 19.4256 13.5925 18.5179V17.4286H4.86655V56.6429H17.9555V49.0179C17.9555 48.7228 18.0634 48.4675 18.2793 48.252C18.4952 48.0364 18.7508 47.9286 19.0462 47.9286H29.9537C30.2491 47.9286 30.5047 48.0364 30.7206 48.252C30.9365 48.4675 31.0444 48.7228 31.0444 49.0179V56.6429ZM31.0444 16.3393V5.44643C31.0444 5.15141 30.9365 4.89611 30.7206 4.68052C30.5047 4.46494 30.2491 4.35714 29.9537 4.35714H27.7722C27.4768 4.35714 27.2211 4.46494 27.0052 4.68052C26.7894 4.89611 26.6814 5.15141 26.6814 5.44643V8.71429H22.3184V5.44643C22.3184 5.15141 22.2105 4.89611 21.9946 4.68052C21.7788 4.46494 21.5231 4.35714 21.2277 4.35714H19.0462C18.7508 4.35714 18.4952 4.46494 18.2793 4.68052C18.0634 4.89611 17.9555 5.15141 17.9555 5.44643V16.3393C17.9555 16.6343 18.0634 16.8896 18.2793 17.1052C18.4952 17.3208 18.7508 17.4286 19.0462 17.4286H21.2277C21.5231 17.4286 21.7788 17.3208 21.9946 17.1052C22.2105 16.8896 22.3184 16.6343 22.3184 16.3393V13.0714H26.6814V16.3393C26.6814 16.6343 26.7894 16.8896 27.0052 17.1052C27.2211 17.3208 27.4768 17.4286 27.7722 17.4286H29.9537C30.2491 17.4286 30.5047 17.3208 30.7206 17.1052C30.9365 16.8896 31.0444 16.6343 31.0444 16.3393ZM48.4963 15.25V58.8214C48.4963 59.4115 48.2804 59.9221 47.8487 60.3532C47.4169 60.7844 46.9056 61 46.3148 61H2.68506C2.09424 61 1.58295 60.7844 1.1512 60.3532C0.719447 59.9221 0.503571 59.4115 0.503571 58.8214V15.25C0.503571 14.66 0.719447 14.1494 1.1512 13.7182C1.58295 13.287 2.09424 13.0714 2.68506 13.0714H13.5925V3.26786C13.5925 2.36012 13.9106 1.58854 14.5469 0.953125C15.1832 0.317708 15.9558 0 16.8647 0H32.1351C33.0441 0 33.8167 0.317708 34.453 0.953125C35.0892 1.58854 35.4074 2.36012 35.4074 3.26786V13.0714H46.3148C46.9056 13.0714 47.4169 13.287 47.8487 13.7182C48.2804 14.1494 48.4963 14.66 48.4963 15.25Z" fill="black"/>
</svg>
