<?xml version="1.0" standalone="no"?>
<!DOCTYPE svg PUBLIC "-//W3C//DTD SVG 20010904//EN"
 "http://www.w3.org/TR/2001/REC-SVG-20010904/DTD/svg10.dtd">
<svg version="1.0" xmlns="http://www.w3.org/2000/svg"
 width="1280.000000pt" height="640.000000pt" viewBox="0 0 1280.000000 640.000000"
 preserveAspectRatio="xMidYMid meet">
<metadata>
Created by potrace 1.15, written by Peter Selinger 2001-2017
</metadata>
<g transform="translate(0.000000,640.000000) scale(0.100000,-0.100000)"
fill="#12A1A7" stroke="none">
<path d="M4740 6163 c-41 -3 -68 -9 -72 -18 -6 -10 -17 -11 -45 -4 -48 11
-241 10 -198 -1 29 -7 29 -8 -10 -10 l-40 -3 35 -6 c19 -4 41 -3 48 2 7 6 15
7 19 3 3 -3 1 -6 -6 -6 -7 0 -9 -4 -6 -10 8 -13 6 -13 -95 5 -108 19 -121 19
-114 0 7 -18 1 -18 -46 -5 -25 7 -36 7 -42 -3 -6 -9 -10 -9 -20 1 -6 6 -20 12
-29 12 -14 0 -16 -7 -13 -39 3 -30 -2 -43 -20 -60 l-23 -22 -27 45 c-14 24
-26 51 -26 58 0 10 -15 12 -62 8 -43 -3 -62 -9 -61 -17 2 -9 -12 -13 -46 -13
-54 0 -150 -18 -166 -32 -5 -4 10 -8 33 -8 23 0 42 -4 42 -10 0 -11 -23 -17
-100 -24 -136 -14 -170 -19 -170 -26 0 -10 128 -33 140 -25 6 4 10 1 10 -4 0
-6 -23 -12 -52 -12 -33 -1 -42 -4 -24 -6 16 -3 39 -11 51 -19 16 -11 47 -13
138 -8 122 5 219 -8 245 -33 7 -7 19 -13 27 -13 7 0 31 -17 54 -39 30 -28 37
-41 28 -50 -8 -8 -8 -14 0 -22 16 -16 49 -6 45 14 -4 22 0 21 48 -3 l40 -20
-50 68 c-28 38 -50 72 -50 76 0 5 11 5 25 2 18 -5 23 -3 19 8 -6 14 23 26 67
26 37 0 79 -42 79 -80 l0 -30 -60 30 c-33 17 -60 26 -60 21 0 -12 53 -56 99
-83 50 -29 67 -79 37 -107 -19 -17 -23 -18 -40 -5 -31 22 -40 17 -21 -12 14
-22 15 -28 4 -35 -10 -6 -17 1 -25 24 -6 18 -9 37 -7 43 2 6 -6 14 -19 18 -32
8 -38 8 -38 -4 0 -5 9 -10 19 -10 17 0 31 -18 31 -41 0 -5 -11 -9 -24 -9 -13
0 -36 -10 -51 -22 -25 -19 -26 -23 -11 -34 13 -9 14 -13 4 -17 -9 -3 -4 -12
15 -26 15 -13 27 -29 27 -37 0 -17 1 -17 37 -4 l28 10 -22 -19 -22 -18 46 -39
c73 -62 82 -67 119 -61 19 3 34 2 34 -4 0 -5 7 -9 15 -9 8 0 15 -4 15 -10 0
-5 12 -10 28 -10 31 1 78 60 60 78 -7 7 2 16 26 27 23 11 35 23 32 31 -3 8 0
14 6 14 7 0 6 5 -2 15 -10 13 -9 15 9 15 11 0 21 5 21 11 0 6 9 8 21 4 13 -4
27 0 40 11 19 17 20 17 13 0 -6 -16 -4 -17 12 -8 10 5 37 13 60 16 24 4 54 19
73 37 18 16 49 38 69 49 21 11 48 28 61 38 l24 19 -76 23 c-43 13 -77 27 -77
33 0 5 7 6 16 3 8 -3 44 -14 80 -23 35 -9 64 -22 64 -29 0 -6 -18 -28 -40 -48
-22 -20 -38 -36 -34 -36 33 0 164 25 219 42 60 19 66 23 45 29 -14 4 -43 8
-65 9 -24 2 -31 4 -18 7 15 3 20 9 16 20 -5 12 -1 14 18 8 13 -4 27 -12 30
-17 4 -6 25 -11 47 -12 33 -2 40 1 39 15 -1 18 -4 20 -71 42 -22 7 -41 18 -44
26 -3 10 1 10 19 -2 30 -19 71 -25 76 -12 2 6 -16 19 -39 28 -30 12 -34 15
-13 11 35 -7 39 -8 83 -6 20 1 32 7 32 16 0 8 12 17 28 19 25 4 25 4 -5 6 -38
1 -45 21 -8 21 14 0 25 4 25 8 0 17 -25 32 -54 32 -59 0 -55 16 4 18 37 2 60
-2 60 -8 0 -7 5 -6 14 2 19 18 12 25 -25 26 -18 0 -35 6 -39 12 -5 7 -16 9
-30 5 l-22 -7 21 21 c12 12 28 21 36 21 9 0 18 7 21 15 4 8 17 15 30 15 13 0
32 4 42 9 43 22 71 32 127 44 l60 14 -68 8 c-46 5 -82 3 -112 -5 -24 -7 -59
-10 -76 -8 -18 3 -53 -1 -77 -9 -25 -7 -48 -11 -50 -8 -3 3 -1 5 4 5 6 0 19 7
30 16 18 14 14 15 -44 10 -40 -4 -61 -2 -57 4 3 6 28 10 55 10 27 0 52 5 55
10 4 6 -12 10 -42 10 -26 0 -64 5 -83 10 -37 11 -279 19 -390 13z m600 -123
c-20 -13 -33 -13 -25 0 3 6 14 10 23 10 15 0 15 -2 2 -10z m-597 -39 c-2 -6 2
-11 7 -11 6 0 10 5 10 10 0 6 5 10 10 10 16 0 12 -18 -10 -40 -24 -24 -60 -29
-40 -5 10 12 10 15 -4 15 -10 0 -16 9 -16 25 0 21 3 23 23 16 12 -5 21 -14 20
-20z m-1043 -51 c0 -5 -7 -7 -15 -4 -8 4 -15 8 -15 10 0 2 7 4 15 4 8 0 15 -4
15 -10z m1355 -201 c3 6 10 9 15 6 12 -7 1 -43 -15 -49 -10 -3 -12 0 -8 12 6
15 5 16 -12 2 -16 -14 -17 -13 -11 7 6 18 3 23 -18 29 -18 4 -26 13 -26 27 0
19 3 18 34 -12 21 -21 36 -29 41 -22z m-280 -29 c-3 -5 -12 -10 -20 -10 -8 0
-17 5 -20 10 -4 6 5 10 20 10 15 0 24 -4 20 -10z"/>
<path d="M3349 6146 c-2 -2 -47 -6 -100 -9 -53 -2 -104 -9 -114 -14 -9 -6 -35
-7 -57 -3 -23 4 -55 4 -72 -1 -17 -5 -57 -9 -88 -9 -54 0 -91 -14 -46 -17 12
-1 24 -7 28 -13 10 -16 76 -24 84 -11 4 6 15 11 24 11 15 0 15 -2 2 -10 -10
-6 19 -9 84 -9 54 0 101 -3 104 -6 3 -3 -11 -5 -31 -5 -31 0 -37 -3 -37 -21 0
-18 5 -20 26 -16 l26 5 -28 -27 c-33 -31 -45 -33 -144 -34 -41 0 -66 -3 -55
-7 15 -5 10 -8 -23 -13 -23 -4 -42 -11 -42 -16 0 -10 396 -8 406 2 4 4 -5 7
-19 7 -15 0 -27 5 -27 10 0 6 9 10 20 10 11 0 20 5 20 10 0 6 17 10 38 10 21
0 47 7 58 15 18 14 18 14 -8 15 -15 0 -30 5 -34 12 -5 7 -1 10 12 6 23 -6 158
14 234 35 30 8 77 18 104 22 27 5 43 11 36 15 -7 4 22 11 64 15 172 16 68 33
-250 40 -105 3 -193 3 -195 1z m-84 -76 c-3 -5 -18 -10 -33 -9 -24 0 -25 1 -7
9 28 12 47 12 40 0z m-98 -36 c-3 -3 -12 -4 -19 -1 -8 3 -5 6 6 6 11 1 17 -2
13 -5z"/>
<path d="M2710 6079 c-14 -4 -20 -8 -15 -9 6 -1 -1 -5 -14 -9 -63 -17 -20 -46
64 -44 41 1 45 0 20 -6 l-30 -8 30 -12 c31 -13 138 -17 155 -6 17 11 67 17 51
6 -7 -4 -9 -11 -5 -14 15 -8 89 -1 110 11 16 10 10 12 -36 13 -30 1 -43 4 -27
6 15 2 25 9 22 14 -8 12 6 11 24 0 18 -11 55 5 46 20 -4 5 -31 9 -61 9 -39 0
-53 -3 -48 -12 5 -8 0 -9 -17 -4 -13 5 -33 9 -44 11 -11 1 -27 5 -35 7 -85 28
-154 38 -190 27z"/>
<path d="M8260 6070 c-20 -6 -21 -8 -5 -8 11 0 31 4 45 8 20 6 21 8 5 8 -11 0
-31 -4 -45 -8z"/>
<path d="M9280 6064 c-14 -7 -20 -14 -15 -15 6 0 -1 -5 -15 -10 -18 -6 -8 -7
35 -4 33 2 54 0 46 -4 -20 -13 13 -21 109 -28 82 -5 86 -4 87 16 1 17 -4 21
-30 21 -29 0 -76 19 -52 21 6 0 1 4 -10 9 -31 13 -127 10 -155 -6z"/>
<path d="M7668 6063 c7 -3 16 -2 19 1 4 3 -2 6 -13 5 -11 0 -14 -3 -6 -6z"/>
<path d="M7715 6059 c-10 -15 3 -25 16 -12 7 7 7 13 1 17 -6 3 -14 1 -17 -5z"/>
<path d="M7760 6062 c0 -4 16 -6 35 -4 19 2 35 6 35 8 0 2 -16 4 -35 4 -19 0
-35 -4 -35 -8z"/>
<path d="M8115 6060 c6 -10 82 -7 92 4 4 3 -17 6 -46 6 -31 0 -50 -4 -46 -10z"/>
<path d="M6824 6050 c-3 -2 -40 -3 -82 -1 -92 3 -90 -14 3 -24 33 -3 70 -8 83
-11 30 -6 156 16 145 26 -9 9 -142 18 -149 10z"/>
<path d="M8040 6050 c0 -13 11 -13 30 0 12 8 11 10 -7 10 -13 0 -23 -4 -23
-10z"/>
<path d="M2525 6040 c-4 -6 3 -10 14 -10 25 0 27 6 6 13 -8 4 -17 2 -20 -3z"/>
<path d="M6589 6033 c-1 -5 -1 -12 0 -16 1 -4 -7 -4 -16 1 -26 13 -166 15
-158 2 3 -5 13 -10 21 -10 8 0 13 -4 9 -9 -9 -15 65 -25 97 -13 16 6 30 6 33
1 3 -4 -7 -11 -22 -15 -46 -10 -49 -12 -18 -14 23 -1 26 -3 12 -8 -13 -6 -6
-11 29 -21 42 -13 47 -12 56 3 5 9 15 16 22 16 7 0 21 9 31 20 10 11 27 20 37
20 26 0 60 -19 53 -29 -6 -11 43 -18 75 -11 23 6 23 6 -11 23 -20 9 -60 22
-90 28 -30 6 -58 15 -63 19 -5 5 -15 6 -22 3 -8 -3 -14 0 -14 6 0 12 -59 16
-61 4z"/>
<path d="M2330 6011 c0 -6 15 -11 33 -12 30 -1 30 -1 7 -9 -19 -5 -8 -8 45
-13 39 -3 85 -8 103 -12 18 -4 32 -3 32 2 0 15 -41 33 -85 38 -22 3 -61 8 -87
11 -33 5 -48 3 -48 -5z"/>
<path d="M9551 5993 l-36 -22 100 6 c55 3 102 7 104 9 10 9 -10 16 -47 17 -22
1 -38 5 -35 9 9 16 -51 2 -86 -19z"/>
<path d="M2115 5990 c-25 -6 -20 -8 25 -8 39 0 49 2 35 8 -23 10 -21 10 -60 0z"/>
<path d="M2580 5994 c0 -13 49 -34 66 -27 8 3 14 0 14 -6 0 -7 18 -10 48 -9
42 1 43 2 10 5 -27 3 -35 8 -31 19 4 10 -2 14 -20 14 -13 0 -39 3 -56 6 -17 4
-31 3 -31 -2z"/>
<path d="M2008 5963 c7 -3 16 -2 19 1 4 3 -2 6 -13 5 -11 0 -14 -3 -6 -6z"/>
<path d="M2060 5960 c0 -5 22 -10 49 -10 28 0 53 5 56 10 4 6 -15 10 -49 10
-31 0 -56 -4 -56 -10z"/>
<path d="M2325 5950 c3 -5 14 -10 23 -10 15 0 15 2 2 10 -20 13 -33 13 -25 0z"/>
<path d="M2835 5950 c3 -5 16 -10 28 -10 18 0 19 2 7 10 -20 13 -43 13 -35 0z"/>
<path d="M9613 5947 c-17 -7 -35 -15 -39 -19 -4 -5 -18 -8 -31 -8 -13 0 -22
-3 -19 -8 2 -4 -28 -8 -67 -8 -146 -2 -312 -22 -370 -45 -23 -10 -25 -13 -12
-23 16 -12 40 -195 27 -208 -6 -6 -33 12 -140 95 -9 7 -11 6 -7 -5 4 -9 0 -18
-9 -21 -10 -4 -13 -1 -9 9 3 7 0 14 -6 14 -19 0 -12 18 9 25 11 3 20 15 20 25
0 10 5 22 10 25 34 21 -38 35 -97 19 -32 -9 -14 -39 29 -49 24 -6 28 -9 14
-12 -10 -3 -37 0 -60 6 -22 5 -59 13 -81 16 -38 6 -39 6 -20 -10 19 -15 18
-15 -17 -9 -42 7 -50 -2 -15 -16 20 -8 19 -9 -11 -9 -25 -1 -35 4 -39 18 -4
16 -10 18 -35 10 -41 -11 -45 -17 -23 -33 16 -12 17 -16 6 -29 -20 -25 -4 -37
53 -37 59 0 91 -17 76 -40 -8 -13 -10 -13 -10 2 0 10 -10 20 -24 24 -35 8 -71
1 -68 -15 7 -35 -55 -68 -138 -72 -43 -2 -55 0 -55 11 0 8 8 16 18 18 9 2 17
-1 17 -7 0 -21 45 -10 80 19 31 27 33 31 19 43 -12 9 -16 23 -13 47 2 20 -1
37 -8 41 -10 7 -10 11 0 21 18 18 15 38 -5 36 -10 -1 -27 0 -38 1 -17 1 -18 3
-5 11 12 8 11 10 -7 10 -13 0 -23 -4 -23 -10 0 -5 -8 -10 -18 -10 -9 0 -23 -9
-30 -20 -7 -11 -27 -26 -45 -34 -17 -8 -26 -15 -19 -15 6 -1 12 -8 12 -16 0
-8 -6 -15 -12 -15 -7 0 6 -10 30 -21 66 -33 38 -43 -49 -19 -41 12 -108 25
-149 30 -41 5 -86 11 -100 14 -19 5 -18 3 7 -9 42 -19 48 -32 22 -46 -16 -8
-23 -8 -29 1 -6 10 -27 10 -96 0 -62 -8 -90 -8 -92 -1 -4 12 -35 15 -46 4 -3
-4 -14 -7 -24 -8 -46 -4 -133 -30 -143 -42 -18 -21 -107 -14 -93 8 3 5 14 9
25 9 23 0 25 15 3 24 -25 10 -91 7 -75 -3 7 -5 10 -14 6 -20 -4 -7 -2 -17 4
-24 17 -21 -2 -37 -34 -29 -18 5 -44 3 -70 -6 -50 -17 -51 -18 -34 -38 13 -16
10 -17 -31 -11 -25 4 -55 10 -67 13 -15 4 -23 2 -23 -6 0 -6 9 -14 20 -17 22
-6 28 -23 8 -23 -25 0 -90 27 -98 40 -5 7 -6 19 -3 26 3 8 -6 16 -22 20 -53
13 -14 15 82 3 85 -10 103 -9 135 4 24 10 36 21 33 29 -3 8 -47 26 -98 41 -87
25 -111 29 -252 45 -50 6 -56 8 -35 15 25 9 24 9 -10 18 -19 4 -41 6 -47 4 -7
-2 -13 0 -13 6 0 7 -7 8 -17 4 -10 -4 -28 -9 -41 -10 -13 -2 -29 -9 -37 -15
-8 -7 -15 -9 -15 -5 0 4 8 14 18 21 14 11 11 12 -23 3 -22 -6 -44 -15 -49 -19
-5 -5 -22 -6 -39 -3 -23 5 -28 3 -22 -7 5 -9 4 -11 -3 -6 -7 4 -20 3 -29 -2
-10 -6 -26 -6 -39 -2 -13 5 -36 4 -59 -4 -22 -8 -32 -16 -24 -19 10 -3 9 -7
-6 -13 -11 -4 -22 -10 -25 -13 -3 -4 -30 -19 -61 -35 -31 -16 -64 -42 -73 -57
-10 -16 -24 -29 -32 -29 -8 0 -14 -5 -14 -11 0 -5 -4 -8 -9 -5 -5 3 -21 -4
-35 -15 -15 -12 -33 -18 -41 -15 -9 3 -15 0 -15 -9 0 -8 -9 -15 -20 -15 -24 0
-70 -20 -70 -31 0 -5 -7 -6 -15 -3 -20 8 -21 -40 -1 -58 11 -11 11 -15 -3 -26
-14 -11 -13 -12 9 -7 24 6 24 5 6 -9 -18 -15 -18 -16 8 -26 15 -5 35 -10 44
-10 30 0 102 35 102 49 0 8 11 2 25 -15 14 -16 25 -34 25 -40 0 -6 9 -19 20
-29 11 -10 18 -20 15 -23 -2 -3 0 -13 5 -22 10 -18 50 -17 50 1 0 5 11 9 25 9
41 0 62 19 57 51 -3 24 1 31 24 41 16 7 35 19 43 27 13 12 12 15 -4 27 -10 8
-25 14 -32 14 -7 0 -13 8 -13 18 0 31 29 60 77 78 56 20 75 33 68 44 -10 16
39 40 80 40 36 0 77 -14 65 -22 -19 -12 -72 -41 -108 -60 -31 -16 -41 -26 -36
-37 4 -9 6 -26 6 -37 -2 -33 45 -48 121 -39 34 4 76 9 92 11 32 4 64 -10 52
-22 -4 -4 -39 -9 -79 -10 -88 -4 -118 -11 -118 -25 0 -6 8 -13 19 -16 13 -3
17 -11 14 -24 -8 -28 -20 -32 -44 -15 -38 26 -69 3 -69 -51 0 -26 -4 -33 -20
-33 -11 0 -20 -4 -20 -10 0 -13 -43 -13 -56 0 -6 6 -33 3 -78 -10 -52 -15 -73
-17 -91 -8 -16 7 -33 7 -52 1 -28 -10 -50 -4 -79 23 -15 13 1 44 23 44 12 0
13 3 3 15 -6 8 -9 19 -5 25 10 16 -22 12 -39 -6 -9 -8 -20 -13 -25 -10 -16 10
-18 -18 -4 -52 18 -42 13 -57 -18 -58 -73 -2 -81 -4 -86 -25 -4 -15 -8 -17
-14 -8 -5 9 -15 4 -33 -19 -15 -17 -40 -34 -57 -37 -17 -4 -33 -13 -36 -21 -3
-8 -20 -21 -38 -30 -26 -12 -38 -13 -54 -4 -18 9 -21 8 -21 -10 0 -17 -6 -21
-27 -20 -54 4 -73 0 -73 -15 0 -8 9 -15 21 -15 25 0 54 -15 81 -42 16 -16 19
-29 15 -60 -3 -22 -9 -44 -14 -48 -4 -4 -55 -4 -113 0 -137 8 -148 3 -142 -62
3 -30 0 -59 -8 -74 -11 -19 -11 -27 -2 -36 7 -7 12 -23 12 -36 0 -22 3 -24 32
-18 24 5 37 1 53 -14 18 -17 27 -19 49 -10 15 5 45 10 66 10 24 0 40 5 44 15
3 8 11 15 18 15 17 0 43 40 40 60 -3 21 41 62 81 75 24 8 33 17 35 37 4 32 40
47 76 30 17 -8 33 -5 72 13 27 13 54 24 61 24 6 1 32 -19 57 -43 25 -25 75
-59 111 -76 65 -31 93 -64 74 -85 -5 -5 -9 -14 -9 -19 0 -6 12 2 26 18 21 22
24 30 13 37 -11 7 -11 11 -1 21 10 10 17 10 32 0 12 -7 20 -8 20 -2 0 6 -17
18 -37 28 -21 9 -39 20 -41 25 -2 4 -10 7 -19 7 -8 0 -32 18 -54 40 -22 22
-44 40 -49 40 -6 0 -10 11 -10 24 0 28 38 44 47 20 3 -8 13 -12 23 -9 11 3 20
-2 27 -17 5 -13 39 -38 79 -58 59 -30 69 -39 72 -65 2 -18 18 -44 42 -67 21
-20 33 -39 28 -40 -13 -5 30 -48 47 -48 9 0 12 6 9 15 -4 10 3 18 20 25 41 15
27 39 -18 31 -5 -1 -6 5 -3 13 4 9 2 18 -3 21 -18 11 -11 27 9 20 10 -3 24 1
31 10 25 30 96 12 83 -21 -3 -8 0 -14 7 -14 8 0 11 -9 8 -25 -3 -14 -1 -25 3
-25 5 0 9 -7 9 -15 0 -9 12 -20 28 -26 15 -7 37 -16 49 -22 18 -8 27 -7 41 6
16 15 21 15 46 2 32 -17 72 -20 80 -6 3 5 21 11 40 13 l34 4 -6 -41 c-8 -59
-50 -145 -78 -157 -17 -8 -31 -7 -53 2 -30 12 -86 6 -96 -10 -3 -5 -29 -2 -58
5 -28 7 -78 19 -109 26 -32 7 -58 15 -58 20 0 4 -11 10 -25 13 -36 9 -80 -14
-80 -42 0 -12 -7 -29 -16 -37 -13 -13 -19 -13 -54 5 -22 11 -49 20 -62 20 -12
0 -27 8 -32 18 -10 18 -78 45 -92 37 -8 -5 -99 33 -99 41 0 3 10 14 22 24 19
15 20 20 9 34 -11 13 -11 19 0 33 12 15 12 16 -3 10 -10 -3 -18 -2 -18 4 0 7
-14 9 -37 5 -21 -3 -86 -8 -145 -11 -103 -5 -179 -22 -224 -50 -23 -15 -130
-10 -140 6 -10 17 -22 9 -34 -22 -8 -18 -27 -37 -49 -47 -43 -21 -83 -76 -75
-106 6 -25 -23 -57 -78 -83 -35 -18 -98 -85 -98 -106 0 -6 -8 -20 -19 -31 -10
-12 -29 -40 -41 -63 -21 -39 -22 -44 -8 -60 15 -17 19 -36 20 -95 0 -35 -20
-102 -32 -106 -7 -3 -6 -11 3 -26 8 -12 13 -34 12 -49 -3 -21 2 -28 21 -33 13
-3 24 -11 24 -16 0 -6 18 -27 40 -48 22 -21 40 -47 40 -58 0 -20 27 -43 149
-125 26 -18 33 -18 122 2 27 6 61 6 84 1 31 -7 50 -4 97 15 84 34 142 41 173
21 14 -9 25 -22 25 -29 0 -25 20 -34 65 -27 38 6 47 3 70 -18 16 -14 24 -30
21 -39 -4 -8 -9 -36 -12 -61 -3 -26 -9 -51 -14 -58 -6 -6 -5 -21 3 -38 11 -25
16 -27 50 -22 41 7 48 -5 17 -27 -19 -13 -19 -14 5 -35 13 -11 29 -39 35 -62
6 -23 19 -49 29 -59 13 -13 16 -24 9 -42 -6 -15 -5 -32 1 -47 17 -36 13 -77
-9 -97 -21 -19 -50 -106 -50 -149 0 -24 39 -105 80 -166 10 -14 20 -54 24 -90
8 -72 25 -118 49 -139 23 -18 81 -137 73 -150 -10 -16 14 -58 41 -70 18 -8 30
-8 46 0 12 7 48 13 82 14 125 5 190 33 251 110 16 20 42 49 57 65 20 21 29 43
34 79 5 48 7 51 49 67 39 15 43 20 46 53 2 20 -4 55 -12 78 -14 42 -14 43 9
59 13 9 35 29 49 45 13 16 39 33 57 39 18 6 43 22 55 35 22 23 23 33 21 112
-1 65 -6 89 -18 98 -8 6 -17 32 -20 61 -2 27 -9 59 -15 71 -9 18 -6 32 16 73
15 29 39 64 54 79 15 15 49 51 77 80 27 29 61 59 76 66 35 19 108 101 126 143
13 31 12 34 -8 50 -15 13 -22 31 -24 65 -1 27 -5 50 -7 52 -2 3 -32 0 -66 -6
-61 -11 -63 -11 -86 14 -15 16 -20 28 -13 30 27 10 -111 127 -150 127 -13 0
-14 3 -5 12 20 20 14 48 -18 80 -22 21 -33 44 -37 76 -4 30 -15 55 -31 71 -14
14 -26 33 -27 42 -1 8 -13 36 -28 62 -15 25 -27 48 -27 52 0 3 -11 23 -25 43
-14 20 -25 43 -25 51 0 8 10 -1 23 -19 28 -42 47 -49 48 -18 0 15 3 18 6 8 4
-8 24 -38 45 -66 21 -28 38 -55 38 -60 0 -5 14 -20 31 -34 22 -19 32 -37 36
-68 4 -30 13 -49 32 -63 14 -11 35 -36 46 -56 15 -28 29 -39 53 -44 45 -9 47
-14 21 -38 -21 -20 -22 -23 -9 -76 15 -63 24 -66 105 -37 36 13 49 23 47 35
-3 20 2 21 29 6 13 -6 25 -7 32 -1 7 5 30 15 52 22 22 7 50 23 62 36 12 14 39
26 62 30 25 4 41 12 41 20 0 8 9 14 20 14 11 0 20 5 20 10 0 6 11 15 25 22 13
6 22 14 20 19 -8 11 6 39 19 39 6 0 21 15 33 32 l23 32 -21 23 c-12 12 -34 25
-50 28 -34 8 -46 22 -51 57 l-3 28 -37 -34 c-27 -25 -48 -35 -75 -37 -45 -3
-64 6 -56 26 3 8 2 23 -2 33 -6 15 -8 14 -19 -7 l-13 -24 -13 37 c-6 21 -19
40 -26 43 -8 3 -24 23 -34 44 -20 38 -20 38 -1 49 37 19 60 12 82 -28 28 -48
126 -100 157 -83 11 6 22 7 26 4 3 -3 6 -1 6 5 0 21 20 13 30 -12 11 -31 15
-33 80 -41 30 -4 57 -8 60 -10 3 -2 46 0 95 4 l90 7 30 -31 c40 -42 82 -68 95
-60 5 3 10 1 10 -4 0 -6 -10 -11 -22 -11 -22 0 -21 -1 8 -31 25 -24 36 -29 57
-24 19 5 27 14 27 28 0 15 3 18 11 10 6 -6 11 -24 11 -39 0 -62 22 -161 44
-204 13 -25 24 -51 24 -58 0 -22 33 -73 45 -69 5 2 21 -7 34 -20 13 -13 19
-23 13 -23 -6 0 -18 7 -27 16 -9 9 -18 14 -21 12 -8 -9 35 -98 47 -98 7 0 29
17 49 39 40 42 52 84 50 174 -1 41 2 49 19 54 12 3 21 9 21 14 0 5 6 9 13 9 7
0 19 8 28 18 8 9 27 27 43 38 25 18 27 23 17 42 -11 21 -7 24 69 61 44 22 82
35 85 31 3 -5 16 -5 29 0 13 5 27 6 30 2 4 -3 9 4 13 16 4 18 9 20 24 11 10
-5 19 -17 19 -25 0 -9 16 -32 35 -51 19 -19 32 -39 29 -44 -3 -5 0 -9 6 -9 18
0 32 -52 21 -76 -8 -17 -6 -24 5 -28 27 -10 40 -7 67 18 l27 25 11 -42 c6 -23
18 -59 27 -79 11 -29 13 -57 9 -118 -4 -44 -3 -80 2 -80 13 0 61 -74 61 -96 1
-36 36 -95 73 -119 46 -32 62 -32 52 -2 -4 12 -9 40 -12 62 -6 45 -50 100 -89
109 -16 4 -24 14 -24 29 0 12 -11 35 -24 50 l-24 28 18 47 c10 26 21 55 24 65
7 21 26 23 26 2 0 -8 7 -15 15 -15 8 0 32 -17 53 -38 22 -22 47 -42 56 -45 9
-4 16 -18 16 -32 0 -14 3 -25 8 -25 12 1 52 38 52 49 0 6 8 11 18 11 9 0 30
10 46 23 25 20 28 30 28 71 -1 55 -10 71 -76 139 -47 49 -60 92 -31 103 8 4
15 11 15 18 0 15 47 36 82 36 20 0 28 -5 28 -18 0 -10 5 -23 12 -30 9 -9 8
-12 -8 -12 -39 0 -59 -42 -27 -54 24 -10 72 39 55 56 -27 27 -13 47 43 63 30
9 55 19 55 23 0 4 19 8 43 10 28 2 57 13 87 34 43 31 89 73 90 83 0 3 0 8 0
13 0 4 12 21 28 38 56 64 60 93 14 95 l-27 1 27 11 c32 13 33 39 1 84 -13 17
-23 36 -23 41 0 6 -9 14 -20 17 -11 3 -20 9 -20 13 0 13 67 61 94 68 37 9 32
20 -11 27 -24 4 -42 2 -53 -7 -18 -16 -40 -10 -40 10 0 8 -9 14 -19 14 -11 0
-22 4 -25 8 -7 12 10 36 21 29 5 -3 30 9 56 27 l47 33 -57 26 -56 25 34 15
c19 8 56 17 82 21 l47 7 -19 -45 c-17 -39 -18 -45 -4 -50 14 -6 14 -9 -2 -26
-25 -27 -10 -42 23 -23 20 11 39 14 65 9 33 -6 35 -9 27 -30 -10 -28 -5 -36
26 -36 25 0 42 -18 28 -29 -5 -3 -9 -24 -9 -46 0 -30 4 -39 15 -36 8 2 31 7
50 10 32 6 35 10 38 43 3 31 -3 44 -34 78 -40 44 -40 44 -4 59 l25 10 -27 0
c-20 1 -32 9 -42 30 -24 46 -43 46 -88 1 -23 -22 -43 -38 -45 -36 -3 2 -1 30
2 61 l7 56 32 -6 c71 -14 138 -39 161 -61 16 -14 25 -18 25 -10 0 7 18 25 40
40 33 22 43 24 63 15 36 -16 71 6 178 111 80 80 92 95 96 132 3 24 11 50 18
58 35 42 -21 107 -76 88 -39 -14 -41 -19 -22 -68 16 -41 16 -43 -2 -56 -28
-21 -42 -17 -48 14 -3 15 -9 39 -13 54 -5 24 -2 29 20 38 16 6 24 15 20 21 -4
8 -9 7 -15 -2 -7 -11 -9 -10 -9 4 0 11 -8 17 -25 17 -35 0 -31 15 8 31 30 12
115 65 145 90 7 6 33 19 57 30 37 17 60 19 137 15 52 -3 98 0 104 5 15 13 96
0 87 -14 -4 -7 10 -8 42 -4 26 4 57 7 69 8 20 0 20 1 2 8 -17 6 -12 13 36 44
45 31 64 37 106 37 40 0 50 -3 46 -14 -9 -25 14 -27 56 -6 22 11 40 17 41 13
0 -5 4 2 9 15 5 12 18 22 29 22 40 0 2 -48 -63 -81 -33 -17 -71 -39 -84 -49
-13 -11 -39 -24 -59 -31 -47 -15 -82 -56 -83 -95 0 -17 7 -53 16 -80 9 -27 18
-55 20 -62 5 -17 64 23 64 43 0 8 10 17 23 20 12 4 27 16 32 28 6 14 21 23 38
25 22 3 27 7 22 22 -6 20 20 41 43 33 6 -3 12 0 12 6 0 6 -5 11 -11 11 -6 0
-9 9 -6 20 4 15 0 20 -14 20 -27 0 -24 8 15 46 21 21 44 33 58 33 13 -1 31 2
41 6 10 4 17 3 17 -3 0 -7 11 -5 28 4 31 16 83 19 98 4 7 -7 27 -2 61 15 28
13 73 30 100 36 26 7 59 17 73 24 16 8 35 9 55 4 17 -5 36 -7 43 -4 18 7 -26
65 -50 65 -10 0 -18 4 -18 9 0 5 9 7 19 4 31 -8 93 16 87 33 -8 21 25 31 36
11 6 -12 22 -17 53 -17 25 0 45 -3 45 -8 0 -8 70 -32 94 -32 8 0 18 9 21 20 4
12 15 20 29 20 12 0 31 6 41 14 17 12 16 14 -16 24 -19 5 -51 13 -71 15 -31 5
-38 3 -38 -11 -1 -13 -6 -11 -23 10 -14 17 -42 32 -82 43 -33 9 -84 23 -114
31 -30 8 -61 12 -69 9 -8 -3 -20 -1 -27 5 -14 12 -225 23 -225 12 0 -4 5 -13
12 -20 9 -9 7 -12 -9 -12 -34 0 -83 12 -83 20 0 5 10 6 23 3 18 -5 20 -3 9 8
-10 11 -18 11 -48 0 -25 -9 -59 -11 -111 -6 -59 5 -79 4 -97 -9 -21 -13 -25
-13 -30 -1 -3 8 -14 15 -25 15 -13 0 -19 5 -15 14 6 16 -8 22 -78 32 -69 9
-117 -1 -111 -25 3 -10 0 -22 -6 -25 -6 -4 -13 4 -17 18 -4 18 -14 25 -42 30
-76 12 -84 15 -95 29 -9 12 -45 17 -142 22 -227 12 -229 12 -220 -16 6 -19 4
-21 -18 -15 -14 3 -29 1 -32 -4 -4 -6 -16 -8 -28 -4 -12 4 -56 8 -97 8 -57 1
-81 -2 -98 -16 -18 -13 -29 -15 -48 -7 -17 6 -32 5 -46 -2 -16 -9 -23 -8 -29
2 -6 9 -3 15 6 17 9 2 13 8 10 13 -4 5 1 9 10 9 24 0 7 20 -18 21 -21 0 -21 1
-2 9 19 7 18 8 -5 13 -14 3 -58 9 -97 12 -62 5 -73 4 -73 -9 0 -13 -13 -16
-64 -16 -36 0 -77 5 -93 11 -15 7 -71 13 -123 14 -52 1 -119 6 -149 10 -38 6
-52 5 -47 -3 4 -7 -14 -13 -49 -17 -59 -8 -87 0 -39 10 16 4 52 13 79 20 28 7
69 18 93 25 38 10 46 17 40 37 -2 4 -10 8 -18 9 -8 1 -28 6 -45 12 -16 5 -60
8 -97 6 -45 -2 -68 0 -68 7 0 7 -9 9 -21 6 -12 -3 -28 0 -36 9 -17 17 -65 17
-110 1z m87 -87 c0 -5 -4 -10 -10 -10 -5 0 -10 5 -10 10 0 6 5 10 10 10 6 0
10 -4 10 -10z m-124 -21 c19 -22 19 -22 -3 -8 -13 8 -23 17 -23 21 0 12 6 9
26 -13z m904 -69 c0 -5 -2 -10 -4 -10 -3 0 -8 5 -11 10 -3 6 -1 10 4 10 6 0
11 -4 11 -10z m675 -10 c3 -5 1 -10 -4 -10 -6 0 -11 5 -11 10 0 6 2 10 4 10 3
0 8 -4 11 -10z m-2380 -30 c3 -5 1 -10 -4 -10 -6 0 -11 5 -11 10 0 6 2 10 4
10 3 0 8 -4 11 -10z m-1760 -80 c-3 -5 -11 -10 -16 -10 -6 0 -7 5 -4 10 3 6
11 10 16 10 6 0 7 -4 4 -10z m3657 0 c2 -5 1 -36 -2 -69 l-5 -58 -75 -57 c-41
-31 -78 -56 -82 -56 -17 0 -6 44 18 73 18 22 22 32 13 38 -14 8 31 70 82 113
33 28 45 32 51 16z m-562 -49 c0 -10 -7 -25 -16 -32 -14 -11 -18 -10 -30 6
-13 17 -12 21 8 32 31 17 38 16 38 -6z m-1024 -23 c-3 -13 -6 -29 -6 -35 0
-19 -47 -16 -58 3 -7 13 -13 14 -30 5 -29 -15 -32 -14 -32 13 0 28 13 33 84
35 45 1 48 0 42 -21z m-641 -69 c-14 -26 -18 -27 -40 -17 -30 14 -30 14 -4 58
l21 34 19 -23 c17 -21 17 -25 4 -52z m3120 11 c-3 -5 -11 -10 -16 -10 -6 0 -7
5 -4 10 3 6 11 10 16 10 6 0 7 -4 4 -10z m-425 -10 c0 -5 -2 -10 -4 -10 -3 0
-8 5 -11 10 -3 6 -1 10 4 10 6 0 11 -4 11 -10z m935 0 c3 -5 12 -7 20 -3 11 3
13 1 10 -10 -5 -11 -14 -13 -43 -6 -20 5 -41 9 -45 9 -5 0 -5 5 -2 10 8 13 52
13 60 0z m-3585 -35 c0 -8 -4 -17 -10 -20 -6 -4 -10 5 -10 20 0 15 4 24 10 20
6 -3 10 -12 10 -20z m-79 -15 c5 0 3 -11 -3 -25 -12 -28 -22 -24 -33 14 -6 20
-4 23 10 18 9 -4 21 -7 26 -7z m-1431 -24 c0 -3 -4 -8 -10 -11 -5 -3 -10 -1
-10 4 0 6 5 11 10 11 6 0 10 -2 10 -4z m5058 -32 c-11 -12 -21 -13 -33 -7 -16
9 -15 12 6 26 29 21 51 5 27 -19z m-4968 13 c0 -15 -41 -37 -66 -37 -8 0 -12
5 -9 10 4 6 11 8 16 5 5 -4 12 1 15 9 3 9 10 14 14 11 5 -3 11 -1 15 5 9 14
15 13 15 -3z m231 -40 c-5 -5 -21 -1 -35 8 -28 19 -36 38 -11 29 9 -4 15 0 15
7 0 8 9 3 20 -11 10 -14 15 -29 11 -33z m-368 23 c-3 -11 -9 -17 -15 -14 -5 3
-4 12 3 20 16 19 18 18 12 -6z m213 -15 c40 -17 41 -39 2 -42 -28 -2 -64 29
-53 46 8 14 9 14 51 -4z m2739 -72 l39 -26 -50 -43 c-27 -24 -55 -41 -63 -39
-8 3 -11 0 -8 -9 3 -7 0 -19 -6 -26 -9 -10 -9 -14 1 -17 6 -3 12 -11 12 -19 0
-9 5 -12 10 -9 6 3 10 15 10 26 0 10 5 19 10 19 6 0 28 11 50 25 48 30 59 32
35 5 -10 -11 -24 -20 -30 -20 -7 0 -16 -12 -20 -27 -6 -27 -51 -73 -70 -73 -6
0 -27 -9 -48 -20 -20 -11 -47 -20 -59 -19 -19 1 -18 2 7 10 36 11 84 49 70 55
-32 14 -36 21 -26 47 6 16 7 44 2 71 -7 41 -6 48 21 80 35 43 60 45 113 9z
m-2375 3 c0 -9 -8 -12 -25 -8 -14 2 -25 8 -25 13 0 5 11 9 25 9 14 0 25 -6 25
-14z m-995 -6 c3 -6 -4 -14 -17 -19 -29 -11 -34 -7 -17 13 16 18 26 20 34 6z
m875 -30 c0 -21 -33 -5 -38 18 -2 10 2 10 18 2 11 -6 20 -15 20 -20z m302 13
c21 -19 24 -43 4 -43 -7 0 -28 -3 -46 -7 -32 -6 -33 -5 -26 23 12 45 37 55 68
27z m318 7 c0 -5 -5 -10 -11 -10 -5 0 -7 5 -4 10 3 6 8 10 11 10 2 0 4 -4 4
-10z m-708 -45 c13 -28 26 -32 34 -10 8 21 21 19 34 -6 9 -16 8 -24 -5 -39
-15 -16 -14 -18 6 -23 20 -5 17 -10 -32 -48 -87 -68 -85 -67 -65 -34 10 17 29
41 42 56 13 14 24 28 24 31 0 4 -24 14 -52 23 -68 22 -72 27 -48 53 27 29 48
28 62 -3z m228 15 c0 -5 -4 -10 -9 -10 -6 0 -13 5 -16 10 -3 6 1 10 9 10 9 0
16 -4 16 -10z m3260 -30 c0 -5 -8 -10 -17 -10 -15 0 -16 2 -3 10 19 12 20 12
20 0z m-2885 -70 c-14 -27 -30 -50 -35 -50 -14 0 -13 8 8 57 11 28 23 43 35
43 16 0 15 -5 -8 -50z m170 1 c38 -16 71 -33 72 -38 2 -4 -21 -32 -51 -61
l-54 -54 -71 42 c-39 24 -73 46 -76 49 -2 4 5 12 15 19 14 9 19 8 23 -3 6 -13
108 -40 128 -33 6 2 -12 22 -40 44 -38 31 -47 44 -39 52 16 16 14 16 93 -17z
m1535 19 c0 -5 -2 -10 -4 -10 -3 0 -8 5 -11 10 -3 6 -1 10 4 10 6 0 11 -4 11
-10z m-1856 -35 c-15 -12 -16 -16 -5 -24 8 -5 9 -11 3 -15 -18 -11 -23 26 -6
46 10 10 20 16 22 13 3 -3 -3 -12 -14 -20z m-287 -19 c15 -13 26 -26 23 -28
-8 -7 -130 -46 -130 -42 0 2 10 24 22 49 25 52 44 56 85 21z m1694 -40 c-5 -6
-14 -28 -19 -48 -12 -43 -9 -44 51 -27 32 9 42 8 56 -5 10 -9 20 -13 24 -10 3
3 11 3 17 -1 11 -7 1 -15 -47 -40 -6 -4 -39 3 -72 15 l-60 22 5 52 c2 28 7 59
10 69 6 18 7 18 25 1 12 -11 16 -21 10 -28z m-1132 -82 c2 -1 -20 -30 -48 -62
l-52 -60 -32 17 c-18 9 -54 40 -81 68 -52 57 -52 53 -3 109 l19 22 96 -45 c53
-25 99 -47 101 -49z m-462 35 c8 -8 2 -19 -22 -40 -31 -28 -36 -29 -135 -29
l-102 0 19 31 c18 32 18 32 111 34 51 1 96 5 99 9 9 9 18 7 30 -5z m1443 -28
c0 -20 -13 -35 -23 -25 -7 8 4 44 14 44 5 0 9 -9 9 -19z m547 -3 c-3 -8 -6 -5
-6 6 -1 11 2 17 5 13 3 -3 4 -12 1 -19z m-2064 -70 c-27 -30 -45 -66 -39 -77
3 -5 -2 -15 -11 -22 -15 -12 -16 -12 -10 5 5 12 3 22 -4 27 -13 8 -71 -9 -65
-20 7 -11 -22 -43 -33 -36 -6 3 -11 2 -11 -3 0 -5 15 -15 33 -23 17 -7 44 -21
59 -31 14 -10 35 -18 46 -18 11 0 23 -7 26 -16 6 -15 8 -15 26 1 25 23 32 17
21 -21 -6 -22 -13 -28 -29 -27 -12 2 -22 -1 -22 -6 0 -12 113 -61 156 -68 38
-6 40 -22 6 -39 -16 -8 -19 -13 -10 -22 9 -9 9 -12 1 -12 -7 0 -14 9 -18 19
-6 20 -65 48 -65 30 0 -5 -8 -9 -17 -8 -11 0 -13 3 -5 6 19 8 14 23 -9 23 -15
0 -19 5 -15 18 6 16 -1 18 -64 18 -41 -1 -74 4 -78 10 -4 6 -23 11 -42 12 -20
0 -40 8 -47 18 -18 25 -68 27 -117 5 -84 -37 -200 10 -142 58 8 7 17 23 20 37
4 14 11 22 16 19 6 -4 13 2 17 12 14 37 83 73 83 43 0 -5 14 -10 32 -10 30 0
31 -1 12 -15 -17 -13 -17 -14 -1 -15 9 0 17 -7 17 -16 0 -12 5 -14 18 -9 9 4
29 10 45 13 15 2 30 9 33 14 4 6 -2 8 -15 3 -12 -4 -29 0 -41 8 -19 13 -17 15
32 30 29 9 66 19 81 23 25 6 26 8 11 19 -15 10 -8 15 47 38 82 33 99 34 72 5z
m2612 12 c3 -5 -1 -10 -10 -10 -9 0 -13 5 -10 10 3 6 8 10 10 10 2 0 7 -4 10
-10z m-890 -10 c3 -5 2 -10 -4 -10 -5 0 -13 5 -16 10 -3 6 -2 10 4 10 5 0 13
-4 16 -10z m-235 -30 c8 -5 11 -10 5 -10 -5 0 -17 5 -25 10 -8 5 -10 10 -5 10
6 0 17 -5 25 -10z m-1090 -59 c0 -24 -13 -38 -32 -36 -9 2 -22 -3 -29 -11 -6
-8 -18 -14 -26 -14 -8 0 1 -15 21 -35 20 -19 40 -35 45 -35 5 0 7 -9 4 -21 -5
-19 -4 -20 14 -8 17 10 23 9 42 -10 17 -17 18 -23 7 -27 -8 -3 -22 -4 -32 -2
-11 2 -20 -4 -22 -14 -2 -11 3 -18 13 -18 9 0 14 -4 10 -9 -3 -5 -1 -12 5 -16
16 -10 12 -72 -6 -79 -46 -18 -148 11 -159 45 -3 10 3 32 13 50 l18 33 -43 45
c-23 25 -43 53 -43 62 0 8 -4 19 -9 25 -16 15 12 41 76 72 68 32 133 34 133 3z
m810 9 c0 -5 -11 -10 -25 -10 -14 0 -30 -9 -37 -20 -15 -23 -28 -26 -28 -6 0
18 13 27 54 37 17 4 32 7 34 8 1 1 2 -3 2 -9z m-520 -15 c-10 -12 -10 -18 0
-30 10 -11 9 -18 -4 -31 -9 -8 -13 -20 -10 -26 5 -8 -6 -9 -36 -4 -53 8 -60
13 -60 34 1 35 48 70 94 71 24 1 27 -1 16 -14z m613 8 c-7 -2 -21 -2 -30 0
-10 3 -4 5 12 5 17 0 24 -2 18 -5z m1892 -53 c-3 -5 -10 -10 -16 -10 -5 0 -9
5 -9 10 0 6 7 10 16 10 8 0 12 -4 9 -10z m-1920 -90 c-3 -5 -15 -10 -26 -10
-10 0 -19 5 -19 10 0 6 12 10 26 10 14 0 23 -4 19 -10z m1346 -36 c12 -14 11
-16 -5 -13 -11 2 -21 10 -24 17 -5 17 13 15 29 -4z m-2450 -22 c-7 -2 -24 -1
-39 3 l-27 8 25 7 c25 7 64 -10 41 -18z m1361 -31 c-5 -3 -12 -15 -15 -26 -3
-12 -5 -6 -6 16 -1 41 22 74 27 38 2 -12 -1 -24 -6 -28z m-1967 29 c-3 -5 -22
-10 -41 -10 -21 0 -33 4 -29 10 3 6 22 10 41 10 21 0 33 -4 29 -10z m665 -50
c-19 -13 -30 -13 -30 0 0 6 10 10 23 10 18 0 19 -2 7 -10z m1835 -80 c3 -5 -1
-10 -9 -10 -9 0 -16 5 -16 10 0 6 4 10 9 10 6 0 13 -4 16 -10z m-2016 -34 c24
-13 24 -14 4 -24 -16 -9 -24 -8 -37 7 -26 29 -7 39 33 17z m261 -41 c0 -8 -4
-15 -10 -15 -5 0 -10 7 -10 15 0 8 5 15 10 15 6 0 10 -7 10 -15z m-180 -24 c0
-19 -31 -35 -48 -25 -30 20 -25 34 12 34 20 0 36 -4 36 -9z m6 -78 c-7 -7 -26
7 -26 19 0 6 6 6 15 -2 9 -7 13 -15 11 -17z m-1848 -200 c-19 -18 -22 -14 -31
41 l-5 28 26 -26 c25 -24 25 -27 10 -43z m3683 24 c-20 -20 -22 -21 -15 -2 8
21 25 37 33 29 3 -2 -5 -15 -18 -27z m-113 -22 c-3 -3 -13 -2 -22 1 -14 5 -15
9 -4 15 13 8 36 -6 26 -16z m30 -29 l24 -13 -32 -13 c-27 -11 -34 -11 -47 3
-31 31 10 49 55 23z m-3298 -26 c0 -5 -15 -10 -34 -10 -19 0 -38 5 -41 10 -4
6 10 10 34 10 23 0 41 -4 41 -10z m1720 -59 c0 -5 16 -32 35 -60 33 -48 34
-51 16 -61 -21 -11 -71 2 -108 29 -26 19 -22 56 9 84 21 18 48 23 48 8z m904
-123 c-8 -15 -14 -29 -14 -33 0 -11 28 -4 40 10 20 24 42 0 29 -32 -5 -14 -7
-28 -4 -31 10 -10 -18 -32 -42 -32 -34 0 -53 51 -53 142 l1 73 28 -35 c27 -32
28 -36 15 -62z m-1880 -37 c13 -5 16 -10 8 -15 -11 -6 -52 9 -52 19 0 7 22 5
44 -4z m1101 -12 c11 -17 0 -20 -21 -4 -17 13 -17 14 -2 15 9 0 20 -5 23 -11z
m-36 -35 c1 -1 -11 -2 -28 -2 -17 1 -28 5 -25 10 3 4 0 8 -5 8 -6 0 -11 5 -11
10 0 8 52 -11 69 -26z m-1123 -28 c38 -18 77 -41 87 -50 22 -22 22 -52 1 -60
-19 -7 -174 15 -174 25 0 3 19 12 43 19 62 20 64 26 13 45 -25 10 -53 26 -62
36 -16 18 -16 19 2 19 11 0 51 -15 90 -34z m-331 -161 l20 -84 -20 -5 c-36
-10 -40 -7 -40 33 0 28 -7 44 -22 58 -21 17 -21 20 -8 51 8 19 21 32 32 32 14
0 22 -18 38 -85z m115 44 c0 -17 -31 -16 -40 1 -15 27 -13 29 15 17 14 -7 25
-15 25 -18z m3134 -5 c3 -8 2 -12 -4 -9 -6 3 -10 10 -10 16 0 14 7 11 14 -7z
m-3830 -2 c2 -4 -4 -13 -15 -20 -15 -10 -19 -10 -19 1 0 24 23 36 34 19z m904
-68 c50 -24 92 -51 92 -58 0 -8 8 -13 18 -12 12 1 18 -8 20 -28 3 -25 1 -28
-20 -23 -13 3 -64 11 -115 18 -90 11 -93 12 -118 48 -16 24 -25 51 -25 75 0
37 1 38 28 32 15 -4 69 -27 120 -52z m592 42 c0 -3 -4 -8 -10 -11 -5 -3 -10
-1 -10 4 0 6 5 11 10 11 6 0 10 -2 10 -4z m-730 -126 c0 -5 -9 -6 -20 -3 -11
3 -20 9 -20 13 0 5 9 6 20 3 11 -3 20 -9 20 -13z m-580 -32 c0 -6 -6 -5 -15 2
-8 7 -15 14 -15 16 0 2 7 1 15 -2 8 -4 15 -11 15 -16z m0 -28 c0 -5 -5 -10
-11 -10 -5 0 -7 5 -4 10 3 6 8 10 11 10 2 0 4 -4 4 -10z m1273 -140 c11 -13
10 -13 -5 -1 -10 7 -17 25 -17 40 l2 26 4 -25 c3 -14 10 -32 16 -40z m-65 -24
c45 -15 40 -33 -11 -40 -52 -8 -73 -1 -80 25 -6 22 20 42 43 32 8 -3 30 -11
48 -17z m-128 -21 c-7 -9 -15 -13 -18 -10 -3 2 1 11 8 20 7 9 15 13 18 10 3
-2 -1 -11 -8 -20z m93 -49 l27 -6 -17 -33 c-9 -17 -17 -36 -18 -41 0 -5 -15
-11 -33 -12 -32 -2 -32 -2 -28 34 3 20 5 45 5 55 1 12 7 17 19 14 9 -3 29 -8
45 -11z m-140 -190 c2 -21 8 -41 13 -44 9 -6 34 -57 34 -67 0 -15 -20 -1 -26
18 -3 12 -13 29 -20 38 -8 9 -17 40 -20 70 -4 39 -2 50 5 38 6 -8 12 -33 14
-53z m-533 -60 c0 -3 -4 -8 -10 -11 -5 -3 -10 -1 -10 4 0 6 5 11 10 11 6 0 10
-2 10 -4z m700 -120 c0 -12 3 -25 6 -29 3 -3 7 -29 8 -57 1 -43 0 -48 -11 -34
-7 10 -13 25 -13 33 -1 9 -2 40 -4 68 -2 29 1 50 5 47 5 -3 9 -15 9 -28z m-80
-261 c0 -8 -2 -15 -4 -15 -2 0 -6 7 -10 15 -3 8 -1 15 4 15 6 0 10 -7 10 -15z"/>
<path d="M1790 5925 l-65 -22 45 -5 c25 -2 53 -1 63 4 9 4 26 12 36 18 13 6
21 6 23 -2 5 -15 65 -1 72 18 9 22 -97 16 -174 -11z"/>
<path d="M2645 5931 c-7 -13 32 -21 95 -20 37 0 49 3 35 8 -32 13 -124 21
-130 12z"/>
<path d="M2181 5921 c-10 -7 -8 -12 10 -25 23 -16 23 -16 -14 -16 -21 0 -54 7
-75 16 -20 8 -62 16 -92 17 -45 1 -60 -3 -80 -21 l-24 -22 25 -1 c13 0 35 -2
49 -4 14 -1 32 1 41 6 8 4 22 3 30 -2 11 -7 8 -9 -11 -9 -23 -1 -23 -2 -6 -12
14 -7 39 -7 95 3 42 8 94 13 116 11 41 -2 85 14 85 31 0 6 -17 7 -40 3 -33 -5
-43 -3 -57 14 -19 22 -31 24 -52 11z"/>
<path d="M2831 5911 c-24 -12 -30 -20 -20 -24 12 -5 12 -7 0 -15 -7 -5 -9 -12
-5 -15 15 -8 392 -7 416 2 l22 8 -22 12 c-16 9 -65 11 -169 7 -95 -3 -154 -1
-167 6 -15 8 -21 8 -24 -1 -2 -6 -11 -11 -20 -11 -13 0 -12 3 4 19 10 10 23
16 28 13 5 -3 6 0 2 6 -4 7 -8 12 -9 12 -1 -1 -17 -9 -36 -19z"/>
<path d="M8320 5920 c-14 -4 -48 -8 -76 -9 -89 -2 -214 -30 -249 -57 -18 -13
-39 -24 -48 -24 -10 0 -17 -7 -17 -15 0 -8 -7 -15 -15 -15 -8 0 -23 -9 -32
-20 -10 -11 -26 -20 -37 -20 -33 0 -2 -22 33 -24 17 -1 36 -7 43 -14 7 -7 36
-12 67 -12 l56 1 -37 20 c-21 11 -38 25 -38 32 0 16 124 87 151 87 10 0 20 4
23 9 6 9 68 21 214 42 45 6 82 15 82 20 0 11 -85 10 -120 -1z"/>
<path d="M2370 5910 c0 -5 11 -10 24 -10 14 0 28 -5 31 -10 4 -7 24 -8 51 -4
39 6 44 4 38 -11 -6 -15 -2 -17 37 -12 24 3 45 6 47 6 1 1 2 12 2 26 0 24 -3
25 -52 25 -38 0 -49 -3 -38 -10 21 -14 -5 -13 -31 0 -15 8 -19 7 -19 -4 0 -13
-4 -13 -35 0 -40 17 -55 18 -55 4z"/>
<path d="M10871 5900 c-35 -8 -37 -26 -4 -37 33 -12 230 0 244 14 12 12 -120
27 -145 17 -9 -3 -28 -2 -43 3 -16 5 -39 7 -52 3z m164 -20 c3 -5 1 -10 -4
-10 -6 0 -11 5 -11 10 0 6 2 10 4 10 3 0 8 -4 11 -10z"/>
<path d="M1860 5890 c-13 -9 -13 -10 0 -10 8 0 22 5 30 10 13 9 13 10 0 10 -8
0 -22 -5 -30 -10z"/>
<path d="M2670 5878 l-25 -11 25 -7 c41 -13 70 -11 70 4 0 8 -7 17 -16 20 -20
8 -23 7 -54 -6z"/>
<path d="M2365 5870 c4 -6 11 -8 16 -5 14 9 11 15 -7 15 -8 0 -12 -5 -9 -10z"/>
<path d="M5370 5870 c0 -5 4 -10 9 -10 6 0 13 5 16 10 3 6 -1 10 -9 10 -9 0
-16 -4 -16 -10z"/>
<path d="M11175 5870 c11 -5 47 -8 80 -8 l60 1 -45 8 c-25 4 -61 8 -80 8 -28
0 -31 -2 -15 -9z"/>
<path d="M1700 5841 c-27 -4 -40 -9 -33 -14 9 -6 3 -16 -19 -36 l-31 -28 52
-17 c55 -18 118 -14 136 8 10 13 69 36 89 36 6 0 -2 -9 -18 -19 l-29 -19 39
-7 c57 -10 63 -13 26 -14 -19 -1 -31 -5 -27 -11 3 -5 52 -11 108 -12 56 -1 80
-3 52 -5 -27 -1 -70 -6 -95 -9 l-45 -7 30 -13 c17 -7 46 -13 66 -14 20 0 41
-6 47 -13 13 -15 187 -6 220 12 13 7 31 7 53 1 66 -19 168 -7 117 13 -7 3 3 6
22 7 l35 2 -35 13 c-19 7 -45 14 -57 14 -14 1 -32 15 -48 39 -22 32 -23 38
-10 48 24 18 18 24 -25 24 -22 0 -40 -5 -40 -11 0 -5 -8 -9 -17 -8 -33 3 -35
-1 -19 -26 21 -31 -1 -35 -27 -5 -19 23 -39 25 -69 9 -15 -8 -22 -8 -28 1 -6
9 -22 11 -54 7 -34 -5 -45 -3 -43 6 1 8 -9 11 -33 9 -24 -2 -31 0 -21 6 9 7
-1 13 -35 21 -27 6 -58 10 -69 9 -11 -1 -42 1 -70 4 -27 3 -70 3 -95 -1z"/>
<path d="M9960 5840 c0 -5 6 -10 14 -10 8 0 18 5 21 10 3 6 -3 10 -14 10 -12
0 -21 -4 -21 -10z"/>
<path d="M10958 5833 c7 -3 16 -2 19 1 4 3 -2 6 -13 5 -11 0 -14 -3 -6 -6z"/>
<path d="M2503 5822 c-27 -4 -31 -22 -6 -22 12 0 14 -3 7 -10 -7 -7 -19 -8
-37 -1 -16 6 -29 7 -32 1 -3 -5 7 -12 22 -15 15 -3 48 -15 73 -26 29 -14 46
-17 48 -10 2 6 16 11 32 11 41 0 47 27 7 36 -29 6 -30 7 -12 20 14 11 15 15 4
18 -14 5 -61 4 -106 -2z"/>
<path d="M2680 5820 c-12 -8 -13 -13 -2 -30 18 -29 15 -39 -12 -50 -37 -14
-30 -47 13 -61 33 -11 61 -31 61 -42 0 -3 -14 -8 -30 -12 -24 -5 -29 -11 -25
-25 5 -15 2 -17 -15 -13 -11 3 -19 11 -17 17 2 6 -5 17 -17 24 -13 8 -15 12
-6 11 8 -1 24 -1 35 0 19 1 19 1 -1 15 -33 24 -68 28 -97 13 l-28 -14 33 -8
c22 -5 27 -9 16 -12 -10 -2 -18 -9 -18 -15 0 -17 -192 -3 -232 16 -33 17 -124
13 -113 -4 3 -4 24 -4 46 1 23 6 44 8 46 5 3 -3 -11 -8 -31 -12 -29 -5 -35
-10 -31 -24 3 -10 1 -21 -5 -25 -5 -3 -10 0 -10 8 0 21 -58 30 -162 28 -58 -2
-88 1 -88 8 0 6 10 11 23 11 18 0 19 2 7 10 -8 5 -39 10 -68 10 -29 0 -85 7
-124 16 -42 10 -86 14 -110 10 -25 -4 -46 -2 -55 5 -10 9 -17 9 -25 1 -17 -17
-36 -15 -65 8 -21 16 -29 18 -41 8 -8 -7 -38 -13 -66 -14 -93 -2 -177 -13
-192 -25 -15 -12 -29 -11 -174 14 -76 14 -215 27 -340 32 -25 1 -61 5 -80 8
-32 7 -121 17 -145 18 -30 0 -96 -20 -110 -35 -18 -18 -35 -21 -35 -6 0 18
-47 10 -76 -12 -15 -12 -47 -25 -71 -28 -49 -6 -57 -21 -16 -32 16 -4 46 -16
68 -27 22 -11 41 -15 43 -10 2 4 9 3 17 -4 7 -7 11 -15 8 -19 -7 -13 -81 -9
-85 4 -3 8 -23 6 -74 -8 -53 -14 -62 -20 -41 -22 15 -2 25 -7 22 -12 -3 -5 0
-12 6 -16 14 -9 126 -8 160 1 21 5 27 3 32 -14 7 -27 2 -29 -68 -37 -43 -5
-65 -14 -89 -36 -30 -28 -31 -29 -8 -34 12 -4 22 -12 22 -18 0 -18 41 -36 75
-34 24 2 31 -1 33 -18 3 -19 9 -21 71 -18 38 1 78 7 90 13 24 13 28 0 6 -19
-8 -7 -15 -17 -15 -22 0 -6 -11 -19 -25 -30 -30 -24 -23 -45 8 -23 12 8 29 15
39 15 10 0 18 4 18 8 0 5 18 15 40 22 22 7 40 17 40 21 0 4 8 10 18 12 16 4
16 5 0 6 -27 2 -22 20 7 27 14 3 25 9 25 13 0 13 58 41 82 40 20 -1 20 -2 3
-6 -29 -7 -47 -24 -41 -39 3 -7 0 -15 -7 -18 -7 -2 -3 -5 8 -5 11 0 31 6 45
14 14 8 36 14 49 15 16 0 21 4 17 15 -4 12 3 15 29 15 19 0 35 5 35 11 0 6 8
2 18 -10 14 -18 34 -23 112 -31 91 -9 111 -15 172 -46 33 -17 55 -18 62 -1 4
6 4 2 2 -11 -4 -21 30 -72 47 -72 9 0 -15 53 -28 62 -6 5 -5 8 3 8 8 0 10 5 6
13 -5 9 -3 9 7 -1 8 -7 15 -17 15 -22 1 -6 2 -14 3 -20 0 -5 6 -10 12 -10 6 0
8 7 5 16 -4 10 -1 14 6 12 19 -7 22 -38 4 -38 -9 0 -16 -5 -16 -11 0 -5 4 -7
10 -4 5 3 15 -4 21 -17 6 -13 19 -29 29 -36 16 -10 18 -8 17 8 -1 10 -4 17 -8
15 -3 -3 -14 4 -24 15 -18 19 -17 20 5 20 13 0 21 -3 17 -6 -9 -10 52 -57 66
-51 10 4 12 -5 11 -29 -3 -36 11 -45 35 -21 11 10 12 8 6 -12 -6 -19 -4 -23 9
-18 8 3 18 2 21 -4 12 -18 15 -59 5 -59 -5 0 -10 -4 -10 -10 0 -18 16 -10 29
14 11 20 17 23 42 16 16 -5 41 -22 55 -39 14 -17 30 -31 36 -31 13 0 32 -21
41 -44 6 -14 4 -17 -9 -12 -8 3 -25 6 -37 7 -20 0 -20 1 -4 8 17 6 17 8 4 20
-24 20 -40 -16 -20 -46 12 -18 14 -37 8 -86 -4 -34 -7 -73 -6 -87 2 -73 4 -91
12 -96 5 -3 9 -13 9 -23 0 -20 33 -54 43 -44 4 3 7 -3 7 -14 0 -11 14 -37 30
-58 17 -21 30 -41 30 -45 0 -4 15 -11 33 -14 49 -9 72 -29 107 -97 18 -34 46
-73 62 -87 28 -23 29 -27 13 -38 -18 -13 -23 -9 60 -59 14 -9 25 -24 25 -34 0
-17 77 -88 86 -78 9 8 -7 35 -24 39 -9 3 -23 22 -31 43 -13 37 -24 52 -88 125
-18 21 -36 51 -39 69 -6 31 -6 31 24 20 19 -6 32 -19 36 -35 4 -14 34 -53 68
-87 34 -34 61 -68 60 -74 -2 -7 2 -13 8 -13 17 0 108 -89 125 -122 10 -20 11
-36 5 -47 -5 -9 -5 -22 -2 -28 11 -17 76 -60 103 -68 13 -4 33 -13 44 -19 11
-7 54 -25 96 -40 70 -26 79 -27 105 -13 36 18 50 13 94 -29 34 -32 127 -68
173 -66 9 0 17 -3 17 -7 0 -4 13 -21 30 -37 16 -16 30 -39 30 -50 0 -12 7 -25
16 -28 10 -4 13 -2 8 6 -4 6 5 3 19 -8 15 -10 27 -25 27 -31 0 -13 1 -14 36
-18 12 -1 32 -10 45 -19 29 -20 53 -21 46 -2 -7 17 27 51 41 42 6 -3 20 -25
32 -48 37 -71 33 -178 -7 -178 -7 0 -15 -11 -19 -25 -3 -14 -12 -25 -19 -25
-17 0 -55 -79 -51 -105 2 -11 10 -19 20 -19 24 2 19 -22 -9 -40 -34 -23 -30
-76 8 -106 15 -12 41 -51 58 -87 18 -37 45 -87 60 -111 16 -25 26 -49 23 -54
-6 -10 13 -38 26 -38 4 0 10 9 13 20 9 36 28 23 21 -15 -6 -34 -5 -35 49 -60
86 -41 101 -63 101 -143 -1 -103 -11 -195 -28 -252 -8 -28 -13 -57 -10 -64 3
-8 1 -17 -5 -21 -7 -4 -9 -22 -5 -45 7 -42 -5 -90 -43 -167 -18 -37 -24 -61
-20 -82 4 -18 1 -41 -8 -57 -16 -32 -10 -54 17 -54 17 0 18 -5 13 -37 -4 -21
-8 -42 -9 -48 -1 -5 -6 -25 -10 -43 -6 -26 -12 -32 -27 -27 -10 4 -29 -1 -41
-10 -14 -10 -17 -16 -8 -14 45 5 53 -7 41 -69 -1 -2 -8 4 -17 13 -9 9 -19 13
-22 10 -4 -3 -1 -10 6 -14 8 -5 11 -19 8 -37 -5 -26 -4 -27 8 -12 7 10 16 18
20 18 10 0 -4 -43 -18 -53 -7 -6 -4 -7 7 -3 14 4 22 -3 34 -32 9 -20 16 -45
15 -55 -1 -15 4 -18 24 -13 14 4 23 3 20 -2 -3 -5 1 -9 9 -9 8 0 19 13 24 29
6 16 17 28 27 28 13 0 14 -3 4 -15 -10 -12 -9 -15 4 -15 16 0 16 -1 0 -17 -10
-10 -21 -18 -25 -18 -4 0 -11 -3 -15 -8 -4 -4 7 -7 25 -7 18 0 30 -4 26 -10
-3 -5 13 -9 40 -8 25 0 48 4 50 8 3 5 14 6 25 3 34 -9 22 12 -15 26 -20 7 -42
23 -51 36 -9 13 -23 26 -32 28 -15 4 -15 5 0 6 15 1 16 5 8 27 -11 29 1 54 26
54 8 0 14 6 14 14 0 8 16 23 35 35 38 22 47 51 16 51 -49 0 -50 58 -1 70 13 3
27 12 31 20 12 24 22 54 21 63 -1 4 9 5 23 1 16 -4 25 -2 25 6 0 7 -6 10 -13
7 -19 -7 -33 4 -41 30 -7 22 -5 23 38 17 42 -6 46 -5 55 20 6 14 8 32 6 39 -4
8 6 13 34 13 70 2 111 14 136 42 26 28 33 52 15 52 -5 0 -10 9 -10 20 0 10 -9
24 -20 30 -11 6 -20 16 -20 22 0 7 5 7 14 -1 8 -7 40 -15 71 -18 53 -6 58 -4
85 24 17 17 37 46 45 64 17 39 39 69 50 69 4 0 5 -8 1 -17 -4 -15 -3 -15 7 1
7 11 24 34 40 51 15 18 27 36 27 41 0 4 -14 23 -32 41 l-32 33 33 0 c23 0 39
7 52 24 23 30 134 83 177 85 30 1 72 26 72 43 0 5 11 26 24 47 14 21 23 41 21
43 -2 2 2 22 10 43 8 22 14 67 15 99 0 45 5 64 20 80 63 66 118 136 124 160 4
15 2 45 -4 66 -9 32 -15 40 -34 40 -13 0 -42 14 -66 31 l-44 32 -35 -38 c-30
-34 -42 -39 -88 -43 l-54 -5 30 49 c17 26 31 51 31 55 0 13 -30 18 -53 10 -20
-8 -23 -6 -23 11 1 16 -11 25 -56 41 l-56 20 -25 -29 c-14 -16 -29 -26 -33
-21 -4 4 2 14 14 23 29 20 28 30 -8 42 -26 10 -31 8 -49 -16 -18 -23 -20 -24
-21 -8 0 11 12 33 28 49 24 26 25 29 10 38 -10 5 -20 24 -23 42 -4 21 -20 44
-47 66 -35 29 -49 34 -108 39 -64 4 -71 7 -114 48 -30 29 -54 44 -71 44 -21 0
-25 4 -20 19 4 15 -1 21 -25 30 -20 6 -29 15 -24 22 5 9 -2 10 -27 5 -19 -4
-50 -7 -69 -7 -19 0 -48 1 -64 1 -17 0 -38 9 -48 20 -10 11 -25 20 -33 20 -7
0 -15 3 -18 8 -2 4 -2 1 -1 -5 2 -7 -5 -13 -14 -13 -10 0 -23 -5 -30 -12 -18
-18 -28 0 -13 23 18 30 7 34 -27 10 -17 -12 -37 -21 -44 -21 -8 0 -18 -3 -22
-7 -4 -5 -12 -9 -17 -9 -5 -1 -13 -2 -19 -3 -5 0 -10 -9 -10 -19 0 -10 -13
-31 -30 -47 -16 -16 -30 -24 -30 -18 0 6 -16 18 -36 28 -33 15 -38 15 -69 1
-45 -22 -50 -21 -90 18 -38 37 -40 47 -25 126 9 48 8 55 -10 72 -16 15 -34 19
-88 18 -97 -2 -96 -2 -83 14 6 7 12 30 13 49 1 20 5 34 9 31 5 -3 11 8 14 23
4 15 10 36 16 45 18 35 11 41 -42 35 -59 -7 -79 -20 -79 -52 0 -24 -33 -60
-48 -51 -5 3 -25 1 -45 -5 -49 -13 -85 6 -126 67 -26 40 -31 57 -31 110 0 35
4 66 10 69 5 3 7 19 4 34 -3 16 -1 38 6 51 11 20 10 21 -12 9 -23 -12 -23 -12
-4 9 13 16 26 20 43 16 15 -4 31 0 43 11 21 19 95 23 166 7 39 -8 40 -8 36 14
-4 22 -1 23 56 23 34 0 68 -6 79 -14 12 -9 23 -10 36 -3 24 13 67 -25 67 -59
0 -34 46 -103 69 -103 23 0 22 45 -4 116 -24 65 -26 78 -15 104 7 17 18 30 24
30 7 0 23 11 36 25 13 14 29 25 36 25 6 0 17 7 24 15 7 8 21 15 31 15 13 0 17
5 12 17 -4 10 -2 14 5 9 6 -3 13 -2 17 4 3 5 1 10 -6 10 -8 0 -9 4 0 13 6 8 7
17 2 23 -14 14 -23 71 -13 78 5 3 13 -9 16 -27 6 -28 8 -30 17 -14 6 10 8 25
5 34 -4 10 -2 13 8 10 17 -7 36 11 36 35 0 13 8 18 28 18 18 0 23 3 14 9 -9 5
4 11 38 15 43 6 50 9 40 21 -16 20 3 51 43 68 17 8 46 20 62 27 17 7 35 14 40
16 73 16 71 16 51 0 -11 -9 -23 -16 -28 -16 -12 0 -10 -28 3 -36 6 -3 23 2 37
13 15 11 44 23 65 27 21 4 47 16 58 27 10 10 19 15 19 9 0 -5 8 -6 17 -3 11 4
12 8 5 11 -7 2 -12 11 -12 20 -1 13 -5 12 -23 -8 -17 -20 -30 -25 -56 -23 -44
4 -81 28 -81 53 0 14 -7 20 -22 21 -18 1 -16 3 10 10 31 9 41 22 23 33 -4 3
-11 2 -15 -1 -4 -4 -24 -6 -46 -4 -40 3 -87 -16 -130 -53 -14 -11 -10 -4 9 17
19 20 43 40 54 43 10 3 39 20 64 36 27 18 48 27 52 21 3 -6 42 -13 86 -17 70
-6 84 -4 113 14 17 11 52 25 76 31 37 9 43 14 44 38 0 24 -5 30 -39 41 -23 8
-35 16 -28 20 8 6 8 9 0 14 -6 4 -15 5 -20 1 -5 -3 -12 -1 -16 4 -3 6 -12 8
-19 5 -7 -3 -20 1 -28 8 -7 7 -23 18 -33 24 -11 6 -20 19 -20 28 0 9 -25 42
-55 72 l-54 56 -26 -31 c-29 -35 -73 -49 -95 -31 -8 7 -23 10 -33 8 -15 -4
-17 1 -17 34 0 21 -2 38 -5 39 -3 0 -17 2 -32 4 -16 2 -41 13 -57 24 -19 14
-43 20 -73 19 -24 0 -57 2 -74 6 -46 9 -55 -2 -42 -53 10 -38 9 -46 -6 -57
-22 -16 -11 -37 14 -29 24 8 38 -20 31 -60 -5 -23 -16 -35 -52 -53 l-46 -23
13 -37 c18 -52 17 -61 -10 -74 -22 -9 -30 -6 -65 22 -23 17 -39 35 -36 40 3 4
2 22 -1 39 -6 30 -8 31 -60 31 -29 0 -56 5 -59 10 -3 6 -15 10 -26 10 -11 0
-39 10 -62 22 -25 13 -63 22 -96 23 -46 2 -56 5 -67 27 -8 15 -25 28 -44 31
-35 8 -38 26 -11 71 26 41 74 76 105 76 17 0 24 4 20 14 -5 14 23 26 66 26 28
0 109 75 89 82 -7 2 21 4 62 4 44 0 84 5 99 13 l24 14 -22 15 c-23 15 -30 34
-11 30 6 -2 13 2 16 8 4 11 -30 28 -72 37 -11 3 -4 3 16 2 20 -2 55 6 78 16
32 14 48 16 69 8 45 -16 72 -32 67 -39 -2 -4 7 -5 20 -2 14 2 25 0 25 -5 0 -5
22 -15 48 -21 60 -16 81 -44 50 -67 -13 -8 -29 -15 -36 -15 -11 0 -12 -3 -3
-14 9 -11 5 -15 -23 -20 -19 -4 -46 -4 -61 0 -25 6 -55 -9 -55 -28 0 -5 34 -7
80 -5 57 3 85 1 97 -9 10 -7 26 -14 36 -14 10 0 16 -4 13 -8 -7 -12 40 -36 53
-27 7 4 17 2 24 -3 7 -5 28 -13 47 -17 19 -3 43 -9 53 -11 36 -11 15 16 -30
36 -62 27 -50 35 18 10 50 -17 55 -18 66 -3 11 14 9 21 -9 40 -12 13 -28 23
-35 23 -8 0 -25 7 -39 16 -24 16 -24 17 -5 31 21 14 37 9 81 -23 26 -19 60
-24 60 -8 0 8 7 14 15 14 9 0 25 8 36 19 20 18 19 18 -22 24 -23 3 -45 10 -48
16 -4 6 -24 13 -46 16 -84 10 -135 43 -72 46 20 1 20 2 -3 9 -18 6 -20 8 -7 9
10 1 15 6 11 12 -3 6 -17 8 -31 4 -16 -4 -22 -2 -18 5 6 10 -1 12 -42 13 -13
0 -23 3 -23 8 0 4 -14 4 -30 -1 -19 -5 -28 -5 -25 1 4 5 14 9 23 10 14 0 13 2
-3 8 -11 5 -28 4 -37 -1 -13 -6 -29 -1 -58 17 -22 14 -49 25 -60 25 -12 0 -19
4 -16 9 9 14 -51 31 -105 31 -33 0 -49 -4 -49 -12 0 -9 -3 -9 -9 1 -7 11 -22
12 -66 7 -73 -8 -95 -20 -88 -46 3 -11 12 -20 19 -20 8 0 14 -4 14 -10 0 -13
-3 -13 -35 2 -14 6 -25 17 -25 25 0 7 -1 16 -1 21 -1 4 9 13 22 20 21 12 17
13 -40 9 -55 -3 -67 -7 -88 -31 -32 -37 -25 -50 28 -57 41 -6 42 -6 9 -8 -53
-3 -18 -17 65 -27 39 -4 62 -9 53 -11 -20 -5 -25 -23 -6 -23 6 0 2 -9 -11 -21
-12 -11 -29 -18 -37 -15 -10 4 -14 0 -12 -11 4 -22 -14 -26 -37 -8 -17 12 -18
16 -6 24 12 8 10 12 -12 22 -23 10 -30 10 -45 -4 -24 -22 -29 -21 -35 3 -3 14
-14 20 -31 20 -14 0 -26 5 -26 10 0 6 5 10 12 10 9 0 9 3 0 12 -10 10 -17 10
-32 0 -18 -11 -22 -9 -30 10 -6 13 -15 31 -22 40 -10 14 -9 21 7 38 16 18 28
21 62 17 27 -3 49 0 60 9 16 12 6 13 -67 14 -47 0 -92 -5 -100 -10z m588 -31
c20 -1 29 -3 20 -6 -10 -2 -18 -8 -18 -11 0 -4 -18 -7 -40 -7 -28 -1 -36 2
-30 10 6 7 6 16 2 20 -4 5 1 5 11 2 10 -4 35 -8 55 -8z m-658 -179 c0 -5 -2
-10 -4 -10 -3 0 -8 5 -11 10 -3 6 -1 10 4 10 6 0 11 -4 11 -10z m-785 -41
c-15 -7 -7 -8 28 -5 52 4 64 -16 12 -22 -15 -2 -40 -11 -54 -20 -14 -10 -22
-12 -18 -4 5 7 3 12 -7 12 -8 0 -18 -4 -21 -10 -8 -13 -45 -13 -45 -1 0 6 10
17 23 26 21 16 20 16 -28 9 -27 -3 -47 -3 -43 0 8 9 91 23 138 24 29 1 32 -1
15 -9z m1750 1 c16 -7 17 -9 3 -9 -9 -1 -23 -4 -32 -7 -11 -4 -16 -1 -16 10 0
17 14 19 45 6z m-649 -41 c8 -14 -10 -11 -32 6 -18 13 -18 14 4 8 12 -3 25 -9
28 -14z m-436 -77 c0 -14 -11 -21 -26 -15 -8 3 -11 9 -8 14 7 11 34 12 34 1z
m-310 -11 c0 -5 -10 -13 -22 -16 -21 -6 -68 -26 -110 -46 -10 -5 -41 -9 -70
-9 l-53 1 37 17 c29 14 35 21 26 30 -8 8 -2 9 27 1 41 -11 57 -9 120 15 49 18
45 18 45 7z m128 -94 c2 -9 -11 -43 -30 -75 -29 -50 -33 -54 -36 -32 -7 65
-12 73 -40 67 -15 -3 -36 -9 -47 -12 -20 -7 -20 -6 -1 9 11 9 31 16 45 17 25
0 25 1 -6 16 -18 9 -33 21 -33 25 0 5 33 8 72 6 60 -2 73 -6 76 -21z m190 -62
c-16 -30 -33 -53 -38 -50 -4 3 -13 -2 -20 -10 -7 -8 -17 -15 -22 -15 -6 0 -5
7 2 15 7 8 9 15 4 15 -4 0 -3 5 4 12 8 8 8 17 1 30 -7 13 -6 20 3 23 7 3 31
11 53 19 22 8 41 15 42 15 0 1 -12 -24 -29 -54z m-1903 35 c-28 -12 -37 -12
-30 0 3 6 16 10 28 9 21 0 21 -1 2 -9z m1695 -135 l35 -13 -28 -11 c-44 -17
-57 -14 -57 14 0 28 2 29 50 10z m-756 -20 c-13 -21 -19 -23 -31 -13 -13 10
-12 14 3 25 32 23 47 16 28 -12z m1351 15 c3 -5 -1 -10 -9 -10 -9 0 -16 5 -16
10 0 6 4 10 9 10 6 0 13 -4 16 -10z m481 -25 c-4 -37 -13 -40 -18 -5 -3 20 0
30 8 30 8 0 12 -10 10 -25z m429 -25 c3 -5 2 -10 -4 -10 -5 0 -13 5 -16 10 -3
6 -2 10 4 10 5 0 13 -4 16 -10z m-1266 -58 c1 -13 -3 -20 -9 -17 -6 4 -8 11
-5 16 4 5 -1 12 -9 15 -13 5 -13 10 -4 27 11 21 11 21 19 2 4 -11 8 -30 8 -43z
m91 7 c20 -32 29 -57 24 -68 -5 -13 -8 -11 -13 9 -4 14 -18 30 -31 37 -24 12
-50 40 -50 54 0 4 8 10 18 12 9 3 18 5 19 6 1 0 15 -22 33 -50z m1335 41 c-3
-5 -14 -10 -23 -9 -14 0 -13 2 3 9 27 11 27 11 20 0z m-1372 -120 c-6 -6 -33
30 -33 44 0 6 9 0 20 -14 10 -14 16 -27 13 -30z m1047 40 c0 -19 -53 -57 -72
-52 -28 7 -16 27 20 30 22 2 29 7 25 18 -3 8 1 14 11 14 9 0 16 -5 16 -10z
m-176 -24 c-21 -15 -30 -14 -19 3 3 6 14 11 23 11 13 0 13 -2 -4 -14z m193
-16 c-14 -11 -29 -20 -34 -20 -10 1 39 39 51 40 5 0 -3 -9 -17 -20z m-707 -21
c0 -5 -7 -9 -15 -9 -15 0 -20 12 -9 23 8 8 24 -1 24 -14z m-220 -14 c0 -8 -7
-15 -16 -15 -14 0 -14 3 -4 15 7 8 14 15 16 15 2 0 4 -7 4 -15z m810 5 c0 -5
-2 -10 -4 -10 -3 0 -8 5 -11 10 -3 6 -1 10 4 10 6 0 11 -4 11 -10z m-520 -45
c8 -6 22 -15 31 -18 9 -3 18 -14 21 -24 4 -16 -1 -18 -41 -17 -55 1 -93 12
-86 24 3 5 -9 3 -27 -4 -30 -13 -108 -20 -108 -10 0 3 33 20 73 38 73 34 105
37 137 11z m-1121 -15 c7 -4 19 -23 26 -43 l12 -36 -23 17 c-13 9 -24 24 -24
32 0 11 -4 10 -15 -4 -18 -24 -37 -11 -41 29 -2 23 0 24 24 19 15 -4 33 -10
41 -14z m1579 -41 c-1 -17 -5 -32 -8 -34 -8 -5 -11 45 -4 56 10 17 14 9 12
-22z m-1110 5 c15 -4 22 -14 22 -30 0 -29 0 -29 -44 -7 -28 13 -33 19 -25 30
13 15 15 15 47 7z m1227 -30 c0 -14 -8 -20 -32 -22 -39 -4 -41 3 -10 29 26 22
42 19 42 -7z m-445 -5 c0 -5 5 -9 11 -9 5 0 7 5 4 10 -11 18 22 11 49 -11 32
-26 24 -47 -10 -24 -13 8 -23 12 -22 8 1 -4 -3 -24 -10 -43 l-13 -35 -17 23
c-14 18 -20 20 -30 10 -6 -6 -12 -7 -12 -2 0 6 5 15 12 22 8 8 8 15 -1 25 -20
25 -46 25 -76 1 -23 -18 -28 -29 -27 -62 2 -41 -18 -70 -38 -57 -14 8 -9 123
5 135 27 23 175 30 175 9z m220 -57 c0 -21 -29 -32 -79 -32 -62 1 -53 16 14
24 20 3 40 7 43 10 8 9 22 7 22 -2z m-104 -51 c-8 -12 -94 -41 -123 -41 -34 0
-28 16 10 26 17 4 43 11 57 15 37 10 62 10 56 0z m-1166 -62 c0 -6 -4 -7 -10
-4 -5 3 -10 11 -10 16 0 6 5 7 10 4 6 -3 10 -11 10 -16z m958 -156 c-3 -10 4
-35 14 -56 11 -22 18 -41 16 -43 -4 -3 -107 22 -114 28 -7 7 8 48 16 43 5 -3
12 4 15 16 5 15 10 18 18 10 16 -16 27 -14 21 4 -4 8 -1 15 6 15 6 0 10 -8 8
-17z m-299 -217 c-12 -10 -60 -16 -54 -6 3 5 18 10 32 10 15 0 24 -2 22 -4z
m-294 -186 c-16 -16 -31 -28 -33 -25 -7 7 39 55 52 55 5 0 -3 -13 -19 -30z
m590 -471 c12 -19 -5 -23 -22 -6 -16 16 -16 17 -1 17 9 0 20 -5 23 -11z m488
-75 c-3 -8 -9 -14 -13 -14 -11 0 -21 30 -14 41 9 15 34 -10 27 -27z m537 -244
c6 0 15 9 22 19 11 18 13 18 49 -6 67 -44 58 -93 -17 -93 -39 0 -46 3 -56 28
-6 15 -17 41 -24 59 -17 38 -17 46 -1 62 10 10 13 4 15 -28 2 -23 7 -41 12
-41z m63 56 c4 -10 1 -13 -9 -9 -7 3 -14 9 -14 14 0 14 17 10 23 -5z m-765
-158 c-3 -32 -2 -33 60 -53 56 -18 62 -23 48 -34 -14 -12 -23 -11 -55 4 -54
24 -83 59 -75 90 9 36 26 31 22 -7z m-48 -223 c-7 -9 -15 -13 -17 -11 -7 7 7
26 19 26 6 0 6 -6 -2 -15z m291 -212 c59 -63 61 -67 47 -94 -14 -26 -54 -32
-79 -13 -8 6 -29 16 -46 23 -18 8 -30 17 -27 22 3 5 0 18 -6 29 -13 24 0 46
35 60 33 14 39 12 76 -27z m-147 -28 c-8 -20 -34 -19 -34 1 0 8 5 25 11 37
l12 21 8 -22 c5 -12 6 -29 3 -37z m344 -78 c4 -22 -6 -21 -46 3 -18 11 -30 25
-27 30 9 14 69 -13 73 -33z m-168 -341 l-1 -41 -14 40 c-20 54 -20 71 0 55 9
-8 15 -29 15 -54z m600 -6 c0 -5 -16 -10 -36 -10 -21 0 -33 4 -29 10 3 6 19
10 36 10 16 0 29 -4 29 -10z m-612 -137 c2 -15 8 -20 19 -16 8 3 19 0 25 -8 7
-10 8 -8 5 9 -8 33 9 26 24 -10 7 -18 14 -36 16 -39 7 -12 -161 -18 -169 -6
-15 23 -9 76 10 86 29 18 67 9 70 -16z m538 -118 c-9 -9 -16 -13 -16 -8 0 12
22 34 28 28 2 -2 -3 -11 -12 -20z m-716 -525 c0 -5 -2 -10 -4 -10 -3 0 -8 5
-11 10 -3 6 -1 10 4 10 6 0 11 -4 11 -10z m30 -140 c0 -5 -5 -10 -11 -10 -5 0
-7 5 -4 10 3 6 8 10 11 10 2 0 4 -4 4 -10z m46 -39 c-3 -5 -16 -11 -28 -14
-22 -6 -22 -5 -4 8 22 17 40 20 32 6z"/>
<path d="M10981 5821 c-10 -6 -1 -11 28 -16 50 -8 65 0 27 15 -33 12 -37 12
-55 1z"/>
<path d="M12310 5730 c-11 -7 1 -10 42 -10 31 0 60 5 63 10 8 13 -85 13 -105
0z"/>
<path d="M4275 5700 c10 -11 20 -20 23 -20 3 0 -3 9 -13 20 -10 11 -20 20 -23
20 -3 0 3 -9 13 -20z"/>
<path d="M3245 5690 c3 -5 8 -10 11 -10 2 0 4 5 4 10 0 6 -5 10 -11 10 -5 0
-7 -4 -4 -10z"/>
<path d="M4132 5681 c-20 -12 12 -23 45 -15 18 5 21 9 11 15 -17 11 -39 11
-56 0z"/>
<path d="M3266 5665 c-11 -8 -15 -15 -9 -15 6 0 16 7 23 15 16 19 11 19 -14 0z"/>
<path d="M7726 5661 c-4 -5 0 -11 6 -14 18 -5 48 3 48 14 0 12 -47 12 -54 0z"/>
<path d="M6585 5650 c5 -9 1 -10 -16 -6 -21 6 -22 6 -6 -5 13 -7 22 -8 29 -1
6 6 6 12 -3 17 -8 6 -10 4 -4 -5z"/>
<path d="M3385 5635 c-5 -2 -22 -6 -37 -9 -16 -4 -28 -13 -28 -21 0 -16 46
-21 65 -7 8 5 19 45 11 41 0 0 -5 -2 -11 -4z"/>
<path d="M3418 5613 c6 -2 18 -2 25 0 6 3 1 5 -13 5 -14 0 -19 -2 -12 -5z"/>
<path d="M5454 5560 c-5 -4 -36 -10 -69 -13 -33 -2 -68 -7 -77 -11 -11 -5 -24
-2 -34 9 -12 11 -25 14 -43 10 -42 -10 -49 -25 -12 -25 21 0 30 -4 25 -11 -3
-6 0 -15 7 -20 12 -8 12 -10 0 -18 -21 -14 117 -24 164 -12 22 5 56 14 76 19
41 10 59 20 59 30 0 6 -43 32 -81 49 -3 1 -10 -2 -15 -7z"/>
<path d="M3028 5543 c-9 -2 -19 -16 -23 -30 -3 -15 -14 -33 -23 -40 -15 -13
-15 -13 6 -8 13 4 30 1 38 -6 13 -10 22 -9 49 5 28 15 39 16 66 7 40 -14 59
-14 59 -1 0 6 -9 10 -20 10 -11 0 -20 4 -20 10 0 8 -53 27 -100 35 -8 1 -14 8
-12 14 1 6 1 10 0 10 -2 -1 -10 -3 -20 -6z"/>
<path d="M5 5460 c3 -5 8 -10 11 -10 2 0 4 5 4 10 0 6 -5 10 -11 10 -5 0 -7
-4 -4 -10z"/>
<path d="M54 5455 c10 -8 24 -11 29 -8 6 4 2 10 -9 14 -31 12 -40 9 -20 -6z"/>
<path d="M3288 5453 c7 -3 16 -2 19 1 4 3 -2 6 -13 5 -11 0 -14 -3 -6 -6z"/>
<path d="M3097 5433 c-14 -13 -6 -20 18 -15 14 2 28 8 31 13 6 10 -39 12 -49
2z"/>
<path d="M3215 5410 c-3 -5 1 -10 9 -10 8 0 18 5 21 10 3 6 -1 10 -9 10 -8 0
-18 -4 -21 -10z"/>
<path d="M165 5340 c3 -5 15 -10 25 -10 10 0 22 5 25 10 4 6 -7 10 -25 10 -18
0 -29 -4 -25 -10z"/>
<path d="M11775 5300 c-3 -5 -2 -10 4 -10 5 0 13 5 16 10 3 6 2 10 -4 10 -5 0
-13 -4 -16 -10z"/>
<path d="M5831 5249 c-14 -29 -16 -39 -7 -36 10 4 13 -1 10 -16 -2 -12 -2 -16
2 -9 10 20 25 13 22 -10 -3 -19 1 -23 25 -21 18 1 27 -3 27 -13 0 -8 4 -14 10
-14 5 0 7 -7 4 -15 -4 -8 -18 -15 -33 -15 -19 0 -22 -3 -12 -9 16 -10 6 -31
-15 -31 -8 0 -14 -5 -14 -11 0 -5 3 -8 8 -5 4 2 23 1 42 -4 29 -6 30 -8 10 -9
-14 -1 -36 -11 -50 -22 -19 -16 -21 -19 -6 -15 11 4 44 9 75 12 31 3 70 7 86
9 17 1 36 3 43 4 7 0 10 6 7 12 -4 6 1 16 11 23 20 15 11 36 -15 36 -10 0 -24
11 -31 25 -7 13 -21 27 -31 30 -10 3 -21 15 -24 25 -3 10 -15 22 -26 25 -19 6
-19 8 -5 24 27 30 20 44 -19 39 -39 -4 -43 -1 -17 18 15 12 13 13 -20 14 -34
0 -39 -4 -57 -41z"/>
<path d="M6800 5280 c0 -13 11 -13 30 0 12 8 11 10 -7 10 -13 0 -23 -4 -23
-10z"/>
<path d="M660 5271 c0 -5 -14 -12 -30 -16 -37 -8 -30 -25 8 -19 27 5 56 24 37
24 -6 0 -3 5 5 10 13 8 12 10 -2 10 -10 0 -18 -4 -18 -9z"/>
<path d="M5785 5270 c-3 -5 -2 -10 4 -10 5 0 13 5 16 10 3 6 2 10 -4 10 -5 0
-13 -4 -16 -10z"/>
<path d="M6665 5250 c-3 -5 1 -10 9 -10 9 0 16 5 16 10 0 6 -4 10 -9 10 -6 0
-13 -4 -16 -10z"/>
<path d="M3230 5200 c0 -5 7 -7 15 -4 8 4 15 8 15 10 0 2 -7 4 -15 4 -8 0 -15
-4 -15 -10z"/>
<path d="M330 5180 c-19 -11 -45 -19 -57 -20 -13 0 -23 -4 -23 -9 0 -10 80 7
95 20 5 5 17 9 28 9 10 0 15 5 12 10 -8 13 -14 12 -55 -10z"/>
<path d="M6438 5193 c-21 -5 -23 -19 -4 -26 14 -5 36 10 36 25 0 8 -4 9 -32 1z"/>
<path d="M6385 5170 c3 -5 8 -10 11 -10 2 0 4 5 4 10 0 6 -5 10 -11 10 -5 0
-7 -4 -4 -10z"/>
<path d="M5734 5155 c-4 -8 -17 -15 -30 -15 -17 0 -24 -6 -24 -19 0 -11 6 -22
13 -25 8 -3 6 -9 -8 -21 -17 -14 -18 -17 -5 -26 8 -5 26 -7 40 -4 14 4 37 9
53 12 29 6 52 36 41 54 -4 6 -1 15 6 19 7 4 10 15 7 24 -9 22 -85 22 -93 1z"/>
<path d="M10850 5160 c0 -5 5 -10 10 -10 6 0 10 5 10 10 0 6 -4 10 -10 10 -5
0 -10 -4 -10 -10z"/>
<path d="M11034 5128 c3 -11 0 -18 -8 -18 -17 0 -30 -48 -18 -63 5 -7 8 -55 6
-107 -2 -55 0 -89 5 -81 6 8 16 11 31 6 l23 -7 -22 23 c-11 12 -21 27 -21 32
0 21 22 47 40 47 24 0 24 -2 0 56 -11 26 -18 54 -16 63 3 9 -2 27 -10 41 -9
14 -13 17 -10 8z"/>
<path d="M170 5120 c0 -5 5 -10 10 -10 6 0 10 5 10 10 0 6 -4 10 -10 10 -5 0
-10 -4 -10 -10z"/>
<path d="M1360 5122 c0 -7 36 -42 44 -42 2 0 3 11 2 25 -1 19 -7 25 -23 25
-13 0 -23 -3 -23 -8z"/>
<path d="M115 5100 c-3 -6 1 -7 9 -4 18 7 21 14 7 14 -6 0 -13 -4 -16 -10z"/>
<path d="M3160 5096 c0 -2 7 -6 15 -10 8 -3 15 -1 15 4 0 6 -7 10 -15 10 -8 0
-15 -2 -15 -4z"/>
<path d="M4025 5014 c-13 -14 -27 -35 -30 -45 -4 -11 -11 -19 -16 -19 -5 0 -9
-7 -9 -15 0 -8 -4 -15 -10 -15 -5 0 -10 -4 -10 -10 0 -6 30 -8 75 -7 60 2 72
1 63 -10 -20 -24 7 -13 42 18 19 17 29 28 22 24 -9 -5 -12 -1 -10 11 2 15 -4
19 -30 19 -18 1 -37 7 -41 14 -5 8 -14 10 -21 6 -15 -9 -6 10 18 38 26 30 -15
21 -43 -9z"/>
<path d="M11485 5000 c-3 -6 1 -7 9 -4 18 7 21 14 7 14 -6 0 -13 -4 -16 -10z"/>
<path d="M1610 4996 c0 -2 7 -7 16 -10 8 -3 12 -2 9 4 -6 10 -25 14 -25 6z"/>
<path d="M3796 4971 c5 -4 23 -11 39 -15 28 -6 29 -5 11 9 -21 16 -67 22 -50
6z"/>
<path d="M4146 4901 c-16 -17 -16 -19 0 -25 10 -4 21 -1 25 6 5 7 4 15 -1 16
-6 2 -8 8 -4 13 9 15 -2 10 -20 -10z"/>
<path d="M3784 4866 c11 -9 29 -16 40 -15 17 1 16 2 -6 9 -14 4 -32 11 -40 15
-7 3 -4 -1 6 -9z"/>
<path d="M11000 4802 c0 -31 -7 -43 -35 -58 -11 -6 -21 -21 -23 -33 -3 -21 12
-29 23 -11 3 6 1 10 -6 10 -7 0 -9 3 -5 7 10 11 49 11 73 0 17 -7 26 -6 38 7
9 9 24 16 34 16 10 0 20 3 24 6 10 10 -4 33 -17 28 -6 -2 -33 9 -59 26 l-47
30 0 -28z"/>
<path d="M11200 4810 c-9 -6 -10 -10 -3 -10 6 0 15 5 18 10 8 12 4 12 -15 0z"/>
<path d="M6337 4724 c-8 -8 3 -34 14 -34 5 0 9 9 9 20 0 19 -11 26 -23 14z"/>
<path d="M10976 4678 c5 -7 2 -9 -9 -5 -17 6 -27 -11 -27 -47 0 -29 -33 -72
-71 -91 -27 -14 -29 -14 -30 2 0 15 -2 15 -7 3 -24 -52 -36 -60 -93 -60 -43 0
-60 -5 -74 -20 -10 -11 -22 -20 -26 -20 -13 0 -59 -42 -59 -53 0 -5 7 -6 16
-3 13 5 14 1 9 -22 -8 -40 21 -39 42 1 14 28 14 32 -1 42 -18 14 -11 26 10 18
8 -3 14 -1 14 4 0 5 11 10 25 11 32 2 32 -6 0 -18 -17 -6 -23 -14 -19 -25 6
-14 8 -14 25 1 10 9 22 13 28 10 15 -10 24 13 11 29 -10 13 -8 15 13 15 17 0
24 -5 23 -17 -2 -24 26 -23 39 2 7 15 20 20 50 20 22 0 46 6 54 13 10 10 16
11 21 2 9 -15 22 3 26 34 7 50 11 63 28 88 17 26 17 30 2 63 -9 19 -19 35 -22
35 -3 0 -2 -5 2 -12z"/>
<path d="M6340 4673 c-11 -2 -16 -15 -16 -38 0 -19 3 -35 7 -35 24 0 39 15 39
40 0 31 -7 38 -30 33z"/>
<path d="M6125 4620 c4 -6 11 -8 16 -5 14 9 11 15 -7 15 -8 0 -12 -5 -9 -10z"/>
<path d="M6470 4562 c0 -4 17 -14 38 -22 20 -8 40 -16 43 -18 4 -2 9 9 11 23
5 24 3 25 -43 25 -27 0 -49 -4 -49 -8z"/>
<path d="M6903 4463 c9 -2 25 -2 35 0 9 3 1 5 -18 5 -19 0 -27 -2 -17 -5z"/>
<path d="M7165 4460 c-3 -6 5 -10 19 -10 14 0 28 5 31 10 3 6 -5 10 -19 10
-14 0 -28 -4 -31 -10z"/>
<path d="M10282 4113 c-7 -3 -19 -18 -28 -34 -11 -23 -12 -34 -3 -50 l11 -21
15 21 c13 19 31 92 22 90 -2 0 -10 -3 -17 -6z"/>
<path d="M3280 4100 c0 -5 5 -10 10 -10 6 0 10 5 10 10 0 6 -4 10 -10 10 -5 0
-10 -4 -10 -10z"/>
<path d="M3114 4039 c-17 -5 -38 -16 -45 -25 -12 -15 -11 -16 11 -9 14 4 29
11 35 16 12 12 45 11 45 -1 0 -5 11 -10 24 -10 14 0 28 -4 31 -10 3 -5 17 -10
30 -10 12 0 25 -7 29 -15 3 -8 15 -15 27 -15 15 0 19 -5 15 -15 -4 -12 4 -15
44 -15 50 0 76 15 43 26 -10 3 -38 15 -63 26 -136 62 -173 71 -226 57z"/>
<path d="M560 3920 c0 -13 5 -20 13 -17 6 2 12 10 12 17 0 7 -6 15 -12 18 -8
2 -13 -5 -13 -18z"/>
<path d="M3475 3906 c13 -19 13 -25 3 -29 -7 -3 2 -6 20 -6 21 -1 35 5 38 14
6 14 8 13 19 -1 7 -10 14 -13 18 -7 11 17 -37 50 -76 51 -37 1 -37 1 -22 -22z"/>
<path d="M3602 3891 c2 -7 7 -12 11 -12 12 1 9 15 -3 20 -7 2 -11 -2 -8 -8z"/>
<path d="M3420 3880 c0 -6 7 -10 15 -10 8 0 15 2 15 4 0 2 -7 6 -15 10 -8 3
-15 1 -15 -4z"/>
<path d="M10260 3871 c-5 -11 -10 -31 -10 -45 0 -13 -5 -26 -11 -28 -7 -2 -7
-12 0 -31 6 -16 15 -26 20 -23 5 3 8 -2 7 -12 -1 -11 6 -17 19 -17 11 0 26 -4
33 -8 7 -5 12 -3 12 4 0 7 9 3 20 -9 26 -27 30 -27 23 -2 -3 12 -17 22 -38 26
-39 7 -56 46 -31 73 13 14 21 89 8 76 -2 -2 -13 0 -23 5 -14 8 -21 6 -29 -9z"/>
<path d="M3285 3870 c3 -5 21 -10 38 -10 24 0 28 3 17 10 -20 13 -63 13 -55 0z"/>
<path d="M3670 3870 c0 -5 11 -10 25 -10 14 0 25 5 25 10 0 6 -11 10 -25 10
-14 0 -25 -4 -25 -10z"/>
<path d="M10260 3702 c0 -5 7 -17 15 -28 14 -19 14 -19 15 2 0 12 -7 24 -15
28 -8 3 -15 2 -15 -2z"/>
<path d="M7905 3670 c4 -6 11 -8 16 -5 14 9 11 15 -7 15 -8 0 -12 -5 -9 -10z"/>
<path d="M10350 3666 c0 -2 7 -7 16 -10 8 -3 12 -2 9 4 -6 10 -25 14 -25 6z"/>
<path d="M10401 3654 c9 -11 9 -18 2 -22 -8 -5 -8 -12 2 -25 12 -16 13 -16 19
5 11 43 7 58 -15 58 -18 0 -20 -2 -8 -16z"/>
<path d="M7772 3636 c-30 -10 -33 -13 -28 -40 4 -16 14 -38 23 -48 14 -15 19
-16 30 -6 15 16 30 109 17 107 -5 -1 -24 -7 -42 -13z"/>
<path d="M10310 3624 c0 -22 2 -24 22 -13 22 12 22 12 5 -14 -13 -21 -14 -27
-3 -36 11 -9 15 -5 19 19 8 38 1 57 -24 63 -15 4 -19 0 -19 -19z"/>
<path d="M3870 3600 c0 -5 5 -10 10 -10 6 0 10 5 10 10 0 6 -4 10 -10 10 -5 0
-10 -4 -10 -10z"/>
<path d="M10182 3574 c-19 -20 -32 -37 -30 -40 2 -2 22 14 43 36 22 22 35 40
30 39 -6 0 -25 -16 -43 -35z"/>
<path d="M10366 3594 c-3 -8 -2 -13 3 -9 5 3 11 -1 14 -7 2 -7 8 -10 12 -6 4
4 1 14 -8 22 -13 14 -16 14 -21 0z"/>
<path d="M8836 3554 c-9 -23 -7 -87 2 -102 12 -18 62 2 62 24 0 19 -40 94 -51
94 -4 0 -10 -7 -13 -16z"/>
<path d="M10410 3544 c-26 -25 -40 -30 -40 -15 0 5 -13 3 -30 -5 -16 -9 -30
-23 -30 -32 0 -11 3 -13 8 -6 4 7 18 14 32 15 20 3 26 -1 29 -21 3 -28 17 -40
44 -40 14 0 17 5 12 22 -6 16 -4 20 9 15 8 -3 18 -2 21 3 7 12 -13 90 -23 89
-4 0 -18 -11 -32 -25z"/>
<path d="M7765 3510 c3 -5 8 -10 11 -10 2 0 4 5 4 10 0 6 -5 10 -11 10 -5 0
-7 -4 -4 -10z"/>
<path d="M10094 3435 c-15 -19 -33 -35 -39 -35 -6 0 -22 -12 -36 -26 -13 -14
-39 -32 -56 -39 -19 -8 -33 -21 -33 -31 0 -13 -7 -16 -35 -11 -28 5 -35 2 -40
-14 -7 -22 2 -58 20 -79 7 -8 15 -26 17 -40 2 -19 10 -26 31 -28 15 -2 27 -7
27 -11 0 -4 20 -7 45 -7 30 1 49 -4 55 -13 7 -12 12 -12 34 3 14 9 26 22 27
29 2 31 9 50 23 60 8 7 16 23 18 37 2 16 11 26 28 30 15 4 20 9 13 13 -17 10
-54 87 -42 87 5 0 7 5 4 10 -3 6 1 10 9 10 9 0 16 7 16 15 0 8 8 15 18 16 15
0 15 1 -2 12 -10 7 -26 20 -35 30 -22 25 -35 21 -67 -18z"/>
<path d="M9370 3421 c0 -7 29 -40 65 -75 36 -34 65 -68 65 -74 0 -6 11 -24 25
-40 14 -17 32 -46 40 -65 19 -45 123 -138 150 -135 16 2 21 13 26 48 6 43 4
47 -39 88 -26 25 -42 48 -39 56 3 8 -5 22 -19 33 -14 10 -35 26 -46 36 -12 9
-26 17 -32 17 -6 0 -37 25 -69 55 -32 30 -66 55 -76 55 -11 0 -26 3 -35 6 -9
3 -16 1 -16 -5z"/>
<path d="M10505 3289 c-4 -5 -4 -22 0 -36 4 -16 2 -29 -5 -33 -9 -5 -9 -9 -1
-14 6 -4 13 4 17 19 3 13 10 23 14 20 4 -2 7 8 7 23 0 15 -2 21 -4 15 -3 -7
-9 -13 -14 -13 -4 0 -6 7 -3 15 7 17 -2 20 -11 4z"/>
<path d="M10392 3272 c-19 -12 -31 -13 -69 -5 -56 13 -93 -4 -93 -43 0 -12 -4
-25 -9 -28 -16 -10 -21 -78 -6 -93 10 -9 12 -24 8 -45 -5 -24 -3 -30 8 -26 8
3 16 24 19 52 3 25 9 45 15 44 5 -2 10 -7 10 -13 0 -5 6 -20 13 -32 10 -19 16
-21 31 -11 18 11 18 13 -4 53 -21 40 -21 43 -4 53 10 7 26 9 36 6 14 -4 15 -4
4 4 -11 8 -11 10 0 15 9 3 7 6 -6 6 -11 1 -32 -5 -46 -13 -21 -11 -29 -11 -43
0 -10 7 -16 21 -14 31 3 15 14 18 76 19 54 0 77 5 89 17 23 23 13 28 -15 9z"/>
<path d="M9445 3270 c3 -5 8 -10 11 -10 2 0 4 5 4 10 0 6 -5 10 -11 10 -5 0
-7 -4 -4 -10z"/>
<path d="M2823 3215 c0 -8 4 -15 9 -15 4 0 8 4 8 9 0 6 -4 12 -8 15 -5 3 -9
-1 -9 -9z"/>
<path d="M10608 3223 c7 -3 16 -2 19 1 4 3 -2 6 -13 5 -11 0 -14 -3 -6 -6z"/>
<path d="M10637 3206 c-28 -13 -27 -26 4 -26 9 0 19 -6 22 -14 3 -8 18 -16 34
-19 25 -4 24 -4 -7 -6 -29 -1 -32 -3 -17 -12 9 -5 17 -17 17 -24 0 -8 5 -15
10 -15 6 0 10 4 10 9 0 5 26 -2 58 -15 31 -13 62 -24 69 -24 14 0 63 -61 63
-78 0 -7 -6 -12 -14 -12 -8 0 -17 -7 -20 -16 -5 -14 -1 -15 30 -9 29 5 41 2
59 -15 27 -25 100 -26 100 0 0 8 11 20 24 26 31 16 65 1 104 -43 15 -17 42
-34 60 -38 18 -4 41 -9 52 -12 16 -4 14 1 -10 25 -16 16 -33 28 -37 25 -5 -2
-8 1 -8 6 0 6 -11 21 -25 33 -29 25 -32 45 -7 51 12 3 5 10 -25 23 -24 10 -43
24 -43 30 0 20 -45 42 -166 84 l-118 40 -42 -35 c-40 -33 -42 -34 -59 -15 -9
10 -18 30 -19 44 -2 15 -5 29 -8 31 -12 12 -66 13 -91 1z"/>
<path d="M10790 3200 c0 -5 5 -10 11 -10 5 0 7 5 4 10 -3 6 -8 10 -11 10 -2 0
-4 -4 -4 -10z"/>
<path d="M9490 3191 c0 -5 5 -13 10 -16 6 -3 10 -2 10 4 0 5 -4 13 -10 16 -5
3 -10 2 -10 -4z"/>
<path d="M9727 3174 c-6 -6 23 -44 34 -44 4 0 2 11 -4 25 -12 25 -19 30 -30
19z"/>
<path d="M9805 3130 c4 -6 11 -8 16 -5 14 9 11 15 -7 15 -8 0 -12 -5 -9 -10z"/>
<path d="M10525 3121 c3 -6 13 -9 23 -9 9 1 30 -2 46 -6 26 -6 28 -5 17 8 -14
17 -97 23 -86 7z"/>
<path d="M10455 3110 c3 -5 13 -10 21 -10 8 0 14 5 14 10 0 6 -9 10 -21 10
-11 0 -17 -4 -14 -10z"/>
<path d="M11380 3091 c0 -5 5 -13 10 -16 6 -3 10 -2 10 4 0 5 -4 13 -10 16 -5
3 -10 2 -10 -4z"/>
<path d="M11343 3061 c-9 -14 -26 -21 -60 -23 -48 -3 -48 -4 -19 -16 16 -7 36
-10 46 -7 21 7 60 43 60 55 0 16 -14 11 -27 -9z"/>
<path d="M10327 3064 c-8 -8 1 -24 14 -24 5 0 9 7 9 15 0 15 -12 20 -23 9z"/>
<path d="M10740 3031 c0 -5 -3 -18 -6 -28 -5 -16 -4 -16 10 1 18 23 20 36 6
36 -5 0 -10 -4 -10 -9z"/>
<path d="M11460 3033 c0 -17 27 -46 33 -36 4 6 -2 18 -13 28 -11 10 -20 14
-20 8z"/>
<path d="M9738 3008 c-6 -17 34 -37 86 -44 22 -3 59 -9 81 -14 57 -13 175 -20
175 -10 0 5 -20 12 -45 16 -26 3 -49 13 -54 23 -8 12 -23 16 -71 14 -42 -2
-69 2 -83 12 -26 18 -84 20 -89 3z"/>
<path d="M9998 2983 c7 -3 16 -2 19 1 4 3 -2 6 -13 5 -11 0 -14 -3 -6 -6z"/>
<path d="M10637 2973 c-4 -3 -7 -11 -7 -17 0 -6 5 -5 12 2 6 6 9 14 7 17 -3 3
-9 2 -12 -2z"/>
<path d="M10455 2960 c-3 -5 -1 -10 4 -10 6 0 11 5 11 10 0 6 -2 10 -4 10 -3
0 -8 -4 -11 -10z"/>
<path d="M11607 2949 c7 -7 15 -10 18 -7 3 3 -2 9 -12 12 -14 6 -15 5 -6 -5z"/>
<path d="M10166 2938 c3 -5 -2 -8 -11 -6 -10 2 -20 -3 -23 -11 -3 -11 0 -12
14 -6 11 4 27 7 37 7 23 -1 22 14 -3 21 -12 3 -17 1 -14 -5z"/>
<path d="M10100 2930 c0 -5 5 -10 10 -10 6 0 10 5 10 10 0 6 -4 10 -10 10 -5
0 -10 -4 -10 -10z"/>
<path d="M10240 2930 c0 -6 16 -10 35 -10 45 0 45 14 0 17 -19 2 -35 -2 -35
-7z"/>
<path d="M10450 2933 c-47 -16 -80 -36 -80 -48 0 -20 3 -19 46 10 20 14 43 25
50 25 7 0 16 5 19 10 6 10 -10 12 -35 3z"/>
<path d="M11670 2921 c0 -6 4 -13 10 -16 6 -3 7 1 4 9 -7 18 -14 21 -14 7z"/>
<path d="M11630 2900 c0 -6 7 -10 15 -10 8 0 15 2 15 4 0 2 -7 6 -15 10 -8 3
-15 1 -15 -4z"/>
<path d="M10228 2884 c24 -17 39 -14 27 5 -3 6 -16 11 -28 11 l-21 0 22 -16z"/>
<path d="M11015 2840 c-8 -12 -15 -60 -20 -129 -3 -29 -11 -64 -20 -77 -16
-24 -39 -31 -49 -15 -3 5 -29 21 -58 36 -80 41 -89 52 -75 83 6 15 15 29 18
32 4 3 9 11 11 19 2 10 -9 15 -39 17 -23 2 -58 10 -79 19 -40 17 -57 20 -35 6
17 -11 6 -31 -19 -31 -26 0 -50 -10 -50 -22 0 -5 -7 -16 -16 -25 -8 -9 -13
-21 -10 -28 3 -8 -6 -15 -25 -17 -19 -3 -29 0 -29 8 0 7 -7 17 -16 22 -19 11
-54 4 -54 -9 0 -5 -4 -9 -10 -9 -16 0 -47 -35 -42 -48 2 -7 -5 -12 -17 -12
-14 0 -19 -5 -15 -15 4 -8 2 -15 -4 -15 -6 0 -12 6 -15 13 -6 17 -29 -5 -31
-30 -1 -20 -24 -55 -44 -67 -7 -4 -46 -16 -86 -26 -67 -16 -122 -41 -137 -64
-4 -5 -11 -6 -17 -3 -5 4 -12 -13 -16 -40 -4 -34 -2 -53 10 -71 13 -20 14 -26
3 -33 -11 -6 -9 -18 9 -61 12 -29 22 -60 22 -69 0 -8 7 -24 15 -35 19 -25 19
-83 0 -90 -23 -9 -18 -19 20 -37 46 -22 57 -21 108 4 30 15 60 21 105 20 48 0
64 3 69 15 9 25 54 39 203 63 30 5 62 5 71 0 8 -4 28 -9 43 -12 27 -3 86 -61
86 -84 0 -20 9 -16 46 20 19 17 44 35 57 39 35 10 69 9 62 -2 -3 -5 -22 -10
-41 -10 -40 0 -42 -5 -11 -31 12 -10 17 -18 11 -19 -7 0 -14 -9 -17 -21 -4
-14 -2 -19 8 -16 17 7 35 -12 35 -39 0 -26 16 -40 55 -49 17 -4 43 -11 58 -17
21 -8 31 -8 40 2 10 10 8 12 -5 7 -22 -8 -24 11 -2 20 8 3 28 -4 44 -16 36
-26 41 -26 82 -1 18 11 45 20 61 20 21 0 27 5 27 21 0 27 52 131 79 158 24 24
30 51 7 32 -10 -9 -16 -9 -21 -1 -7 12 25 41 36 34 13 -8 28 78 18 103 -5 13
-9 37 -9 52 0 18 -13 39 -40 66 -22 21 -40 45 -40 51 0 7 -9 15 -19 19 -11 3
-28 22 -38 42 -11 21 -35 45 -56 56 -21 11 -42 28 -48 38 -5 11 -20 19 -35 19
-29 0 -84 26 -84 40 0 14 35 30 64 30 37 0 36 38 -2 52 -22 9 -32 23 -47 69
-18 57 -28 69 -40 49z m-310 -128 c-3 -3 -11 0 -18 7 -9 10 -8 11 6 5 10 -3
15 -9 12 -12z m295 -269 c0 -4 -5 -2 -12 5 -14 14 -28 16 -28 4 0 -5 25 -36
55 -69 l54 -60 -23 -22 c-29 -28 -85 -37 -110 -19 -12 10 -19 29 -20 60 -1 32
-11 62 -33 97 l-32 51 30 0 c17 0 39 -5 50 -10 17 -10 18 -8 9 15 -21 54 -9
58 25 8 19 -29 35 -56 35 -60z m-442 1 c-31 -18 -31 -18 -51 16 -26 44 -12 54
34 23 l40 -27 -23 -12z m277 55 c11 -17 -1 -21 -15 -4 -8 9 -8 15 -2 15 6 0
14 -5 17 -11z m232 -405 c-3 -3 -12 -4 -19 -1 -8 3 -5 6 6 6 11 1 17 -2 13 -5z"/>
<path d="M10615 2830 c-19 -8 -19 -9 3 -9 12 -1 22 4 22 9 0 6 -1 10 -2 9 -2
0 -12 -4 -23 -9z"/>
<path d="M7747 2803 c-4 -3 -7 -14 -7 -22 0 -9 -8 -24 -17 -32 -10 -9 -25 -26
-33 -38 -8 -12 -32 -27 -52 -33 -55 -16 -73 -49 -58 -104 11 -39 10 -46 -9
-73 -19 -26 -21 -39 -15 -77 9 -64 35 -88 82 -79 21 4 40 10 43 13 10 11 79
232 79 252 0 10 5 22 11 26 6 3 8 17 5 30 -5 19 -3 22 10 17 13 -5 14 0 8 33
-6 35 -30 94 -38 94 -1 0 -6 -3 -9 -7z"/>
<path d="M12305 2650 c-3 -5 -2 -10 4 -10 5 0 13 5 16 10 3 6 2 10 -4 10 -5 0
-13 -4 -16 -10z"/>
<path d="M12252 2608 c5 -15 37 -18 41 -3 1 6 -9 12 -22 13 -16 3 -22 -1 -19
-10z"/>
<path d="M11824 2485 c22 -19 46 -35 53 -35 8 0 -6 16 -31 35 -59 45 -73 45
-22 0z"/>
<path d="M10847 2019 c-3 -13 -1 -19 6 -16 15 5 22 37 9 37 -5 0 -12 -9 -15
-21z"/>
<path d="M12110 1990 c6 -10 17 -23 25 -28 24 -13 31 -75 11 -95 -19 -19 -20
-27 -3 -27 23 0 37 -21 27 -41 -7 -12 -6 -19 5 -23 16 -6 65 47 65 70 0 8 7
14 15 14 13 0 35 28 35 45 0 4 -13 4 -29 0 -22 -5 -35 -1 -48 12 -11 11 -25
17 -31 15 -7 -2 -17 10 -23 27 -6 17 -19 36 -29 41 -27 15 -32 12 -20 -10z"/>
<path d="M10828 1973 c6 -2 18 -2 25 0 6 3 1 5 -13 5 -14 0 -19 -2 -12 -5z"/>
<path d="M12055 1770 c-18 -26 -48 -51 -79 -67 -57 -28 -96 -60 -96 -79 0 -7
20 -15 49 -19 57 -8 86 6 100 47 10 27 43 52 55 41 3 -3 6 -1 6 6 0 6 11 24
25 39 29 32 32 52 7 52 -10 0 -23 5 -28 10 -8 8 -20 -2 -39 -30z"/>
<path d="M11122 1758 c25 -47 51 -64 68 -43 7 8 16 13 20 10 4 -3 10 5 14 18
13 49 10 52 -58 53 l-64 0 20 -38z"/>
<path d="M3427 1738 c-7 -25 -3 -33 12 -23 13 8 15 45 2 45 -5 0 -11 -10 -14
-22z"/>
<path d="M8440 1503 c0 -15 28 -17 49 -4 9 6 4 10 -18 13 -21 3 -31 0 -31 -9z"/>
<path d="M3906 1415 c-4 -13 -2 -14 14 -5 23 13 26 20 6 20 -8 0 -16 -7 -20
-15z"/>
<path d="M3949 1413 c-13 -16 -12 -17 4 -4 16 13 21 21 13 21 -2 0 -10 -8 -17
-17z"/>
<path d="M4734 1325 c22 -17 40 -20 32 -6 -3 5 -16 11 -28 14 -22 6 -22 5 -4
-8z"/>
<path d="M3945 997 c-16 -5 -43 -16 -60 -22 -16 -7 -45 -16 -62 -20 -18 -3
-35 -10 -38 -15 -3 -5 -32 -21 -65 -37 -33 -15 -60 -33 -60 -40 0 -7 6 -10 13
-7 10 4 12 -3 9 -26 -4 -26 -9 -30 -33 -30 -32 0 -33 4 11 -65 10 -16 19 -33
19 -37 2 -16 -44 -29 -144 -39 -96 -10 -108 -9 -119 6 -9 12 -19 15 -35 10
-21 -6 -22 -7 -4 -22 16 -13 14 -14 -27 -8 -25 4 -55 6 -67 6 -13 -1 -23 4
-23 9 0 6 9 10 19 10 11 0 23 5 26 10 4 6 -7 10 -24 10 -21 0 -31 -5 -31 -15
0 -11 -7 -14 -24 -9 -15 3 -29 -1 -40 -11 -14 -14 -28 -16 -86 -10 -39 4 -72
11 -75 15 -3 4 -25 5 -51 2 -29 -3 -49 -1 -53 6 -5 8 -17 9 -45 1 -38 -11
-377 -5 -443 7 -21 4 -33 2 -33 -5 0 -7 24 -11 66 -11 36 0 63 -4 60 -9 -3 -4
-29 -7 -58 -5 -29 2 -44 1 -33 -2 11 -3 24 -10 30 -15 5 -5 15 -9 23 -9 7 0
19 -6 26 -13 10 -10 -26 -12 -182 -13 -150 0 -191 2 -178 11 9 7 13 15 9 18
-10 11 -53 8 -53 -3 0 -16 -42 -11 -62 7 -16 14 -22 15 -39 5 -30 -19 -417
-29 -448 -13 -16 9 -21 9 -16 2 5 -9 -33 -12 -142 -11 -81 0 -177 -4 -213 -10
-59 -9 -232 -28 -271 -30 -16 0 -23 -30 -6 -30 5 0 4 -6 -2 -14 -7 -8 -22 -11
-39 -8 l-27 5 23 -25 c38 -42 24 -44 -19 -3 -23 22 -39 34 -35 28 7 -13 -11
-19 -44 -14 -37 5 -132 12 -202 15 -70 3 -78 1 -78 -15 0 -17 9 -19 73 -20 39
-1 60 -4 45 -6 -59 -9 -22 -20 120 -36 214 -25 236 -34 134 -55 -37 -8 -110
-10 -198 -7 -86 3 -124 1 -100 -4 21 -4 41 -13 45 -18 3 -6 26 -14 51 -18 41
-7 43 -9 22 -18 -12 -5 -22 -18 -22 -28 0 -13 10 -19 42 -23 153 -20 276 -30
358 -30 52 0 328 1 614 2 477 2 518 4 512 19 -4 9 -1 20 6 25 24 15 38 8 38
-17 l0 -25 1906 0 1906 1 -6 40 -6 40 35 -27 c39 -30 43 -40 18 -47 -10 -2
1485 -4 3322 -4 1837 -1 3320 3 3295 7 -25 5 -103 9 -175 9 -184 1 -405 19
-580 47 -154 25 -282 63 -277 83 1 7 -15 12 -40 12 -28 1 -34 3 -18 6 13 3 32
13 40 23 15 18 108 35 168 32 12 -1 22 3 22 8 0 6 -9 10 -20 10 -11 0 -20 3
-20 8 0 4 -13 13 -30 20 -25 11 -29 19 -28 48 1 32 4 35 40 40 21 4 38 10 38
13 0 11 72 34 104 33 32 -1 76 24 76 43 0 7 6 15 13 18 6 2 -8 7 -33 12 -25 4
-50 11 -55 16 -6 4 -46 10 -90 14 -115 8 -154 14 -203 31 -24 8 -73 16 -110
18 -36 3 -68 9 -70 15 -4 12 -32 15 -32 4 0 -5 -20 -8 -45 -8 -25 0 -45 3 -45
8 0 4 -18 7 -40 7 -22 0 -48 4 -58 9 -9 6 -34 13 -54 16 -21 3 -38 10 -38 15
0 6 -10 9 -22 9 -27 -1 -138 9 -188 16 -19 3 -62 8 -95 11 -33 3 -63 11 -67
17 -4 7 -11 8 -20 1 -7 -6 -33 -16 -57 -23 -23 -7 -50 -15 -59 -18 -11 -5 -14
-2 -9 10 8 22 -25 23 -47 2 -19 -19 -59 -19 -95 0 -16 8 -31 11 -35 8 -6 -7
-160 -15 -261 -15 -58 0 -131 13 -160 29 -24 13 -97 2 -120 -17 -12 -10 -41
-9 -149 5 -117 16 -141 17 -178 5 -52 -16 -429 -22 -440 -6 -3 5 -13 2 -23 -7
-9 -10 -28 -17 -43 -17 -83 -1 -151 -8 -182 -18 -19 -6 -56 -16 -82 -23 -27
-6 -48 -15 -48 -19 0 -11 -23 -18 -98 -30 -37 -6 -75 -18 -84 -27 -10 -9 -18
-12 -18 -7 0 5 -13 -6 -29 -23 -31 -34 -88 -51 -116 -35 -18 10 -17 12 30 48
16 13 17 15 3 10 -22 -7 -50 3 -42 15 3 5 12 9 21 9 19 0 55 39 50 54 -2 6
-50 14 -113 18 -191 13 -327 27 -333 36 -31 43 -252 41 -235 -2 3 -9 -6 -11
-32 -8 -28 3 -35 1 -29 -8 6 -9 -2 -11 -31 -8 -50 6 -265 -39 -281 -60 -14
-17 -60 -25 -69 -11 -3 6 -14 7 -25 4 -11 -4 -36 3 -59 16 -34 19 -44 21 -58
11 -36 -26 -72 -34 -207 -49 -95 -10 -171 -13 -235 -8 -130 10 -291 7 -307 -6
-7 -7 -26 -8 -45 -4 -45 9 -258 4 -298 -8 -59 -17 -108 -22 -198 -19 -57 2
-100 8 -96 13 10 18 -34 9 -60 -12 -26 -20 -28 -21 -47 -3 -17 15 -24 16 -53
6 -18 -7 -42 -10 -52 -6 -18 5 -18 5 -1 -9 17 -14 16 -16 -14 -31 -17 -9 -36
-13 -41 -10 -5 3 -14 1 -21 -4 -7 -6 -27 -12 -46 -14 -19 -2 -36 -9 -39 -17
-3 -10 5 -12 39 -7 38 6 34 3 -26 -18 -38 -13 -71 -29 -73 -35 -2 -7 -32 -11
-75 -11 -177 0 -557 -68 -557 -100 0 -8 116 -30 133 -25 7 2 41 6 77 8 61 5
63 5 35 -8 l-30 -14 33 -1 c17 0 32 -4 32 -8 0 -11 -452 -51 -699 -61 -123 -6
-238 -16 -289 -27 -57 -12 -86 -14 -90 -7 -4 6 -36 14 -72 18 -36 3 -105 13
-155 20 -49 7 -124 16 -165 20 -123 10 -294 43 -232 44 14 1 20 5 17 11 -4 7
-42 10 -93 10 -101 -2 -141 5 -162 27 -14 14 -13 15 10 8 42 -13 197 -18 180
-6 -8 6 -35 11 -60 11 -42 1 -80 17 -80 35 0 4 6 2 14 -4 17 -15 250 -35 280
-24 16 5 8 9 -34 14 -30 3 -73 14 -95 23 -36 16 -38 18 -21 28 14 8 28 8 51
-1 50 -18 180 -25 238 -13 29 6 88 16 132 22 51 6 84 16 92 26 6 9 17 13 23 9
6 -3 24 5 41 19 20 17 25 26 15 26 -9 0 -16 4 -16 8 0 5 15 7 33 5 l32 -3 -28
13 c-15 7 -24 17 -20 21 5 5 -9 6 -30 4 -29 -3 -36 -1 -32 10 3 7 5 16 5 18 0
2 11 2 25 -2 15 -4 25 -2 25 5 0 6 -7 11 -15 11 -13 0 -19 12 -16 32 2 14 -64
52 -85 50 -15 -2 -24 3 -29 18 -4 12 -5 23 -3 24 45 33 69 45 81 40 10 -3 20
3 27 15 12 23 70 51 106 51 13 0 24 4 24 10 0 5 15 14 33 19 l32 9 -30 0 c-16
0 -43 -5 -60 -11z m5139 -256 c16 -17 16 -19 -5 -24 -47 -12 -108 15 -78 34
24 15 65 10 83 -10z m-270 -36 c11 -8 16 -18 12 -22 -4 -4 -11 -2 -15 5 -5 9
-17 11 -34 6 -27 -6 -39 10 -14 19 20 9 31 7 51 -8z m1716 -14 c14 -27 14 -28
-20 -23 -33 5 -37 11 -18 30 17 17 26 15 38 -7z m-4230 -70 l24 -19 -28 -37
c-28 -36 -31 -37 -74 -31 -25 3 -47 8 -49 9 -2 3 20 74 42 136 4 10 12 7 33
-12 15 -15 38 -35 52 -46z m-640 28 c-9 -17 -40 -17 -40 0 0 14 23 29 36 24
10 -4 11 -10 4 -24z m146 -17 c-18 -16 -18 -16 -6 6 6 13 14 21 18 18 3 -4 -2
-14 -12 -24z m4948 -11 c10 -17 16 -35 13 -38 -9 -8 -114 -9 -123 -1 -9 9 67
78 81 74 5 -1 18 -17 29 -35z m-4674 -15 c0 -36 -17 -41 -18 -6 0 17 4 30 9
30 5 0 9 -11 9 -24z m4495 14 c8 -13 -5 -13 -25 0 -13 8 -13 10 2 10 9 0 20
-4 23 -10z m632 -17 c-9 -9 -20 -13 -24 -9 -4 4 -1 11 7 16 25 16 35 11 17 -7z
m-5577 -18 c0 -14 -4 -25 -10 -25 -5 0 -10 4 -10 9 0 5 -3 16 -6 25 -4 11 -1
16 10 16 10 0 16 -9 16 -25z m4708 -1 c-19 -19 -31 -24 -48 -19 -26 8 -20 15
23 31 50 18 54 16 25 -12z m-3963 -18 c25 -20 28 -26 16 -40 -10 -12 -23 -14
-55 -10 -22 4 -43 8 -45 10 -5 4 39 64 47 64 4 0 20 -11 37 -24z m3637 2 c-9
-9 -15 -9 -24 0 -9 9 -7 12 12 12 19 0 21 -3 12 -12z m-3974 -8 c12 -1 9 -7
-13 -25 -37 -31 -45 -31 -45 -2 0 29 9 39 28 32 7 -3 21 -5 30 -5z m-3173 -10
c-3 -5 -13 -10 -21 -10 -8 0 -12 5 -9 10 3 6 13 10 21 10 8 0 12 -4 9 -10z
m-1577 -40 c2 -20 -3 -28 -28 -37 -27 -10 -30 -9 -30 9 0 54 52 79 58 28z
m392 -60 c26 -37 25 -40 -9 -40 -25 0 -29 4 -35 38 -3 20 -6 51 -5 67 l0 30
14 -33 c8 -18 24 -46 35 -62z m1096 10 c-30 -46 -39 -49 -53 -17 -14 30 -3 49
39 63 43 14 46 3 14 -46z m7254 36 c0 -7 -11 -16 -25 -18 -19 -4 -25 -1 -25
13 0 14 7 19 25 19 15 0 25 -6 25 -14z m-7780 -6 c0 -5 -7 -10 -15 -10 -8 0
-15 5 -15 10 0 6 7 10 15 10 8 0 15 -4 15 -10z m6639 1 l24 -6 -32 -28 c-38
-32 -40 -32 -69 -11 -52 36 0 67 77 45z m-334 -13 c27 -12 32 -23 14 -33 -11
-7 -49 22 -49 37 0 11 4 10 35 -4z m-7625 -30 c0 -17 -3 -18 -14 -8 -8 6 -12
18 -9 26 7 19 23 7 23 -18z m370 6 c0 -9 -13 -32 -30 -51 l-30 -34 0 36 c0 19
0 38 -1 43 0 6 29 18 54 21 4 1 7 -6 7 -15z m7350 -58 c0 -36 5 -77 10 -93
l10 -28 -20 25 c-11 14 -22 40 -26 58 -3 18 -15 43 -26 57 l-20 25 24 9 c45
18 48 15 48 -53z m1393 -29 c-3 -22 -11 -37 -19 -37 -8 0 -14 -4 -14 -9 0 -5
-15 -12 -32 -16 -18 -4 -41 -9 -50 -11 -25 -7 -22 14 8 53 30 40 54 43 54 7 0
-33 18 -22 37 23 18 43 24 39 16 -10z m-1973 15 c0 -4 -11 -24 -25 -44 -14
-20 -25 -43 -25 -49 0 -10 -3 -10 -12 -1 -10 10 -10 15 1 21 11 7 9 13 -8 30
-35 35 -27 51 24 51 25 0 45 -3 45 -8z m-3855 -71 c3 -5 1 -12 -5 -16 -5 -3
-10 1 -10 9 0 18 6 21 15 7z"/>
<path d="M3990 980 c0 -5 7 -10 15 -10 8 0 15 5 15 10 0 6 -7 10 -15 10 -8 0
-15 -4 -15 -10z"/>
<path d="M3790 970 c-13 -8 -12 -10 3 -10 9 0 17 5 17 10 0 12 -1 12 -20 0z"/>
<path d="M9558 933 c7 -3 16 -2 19 1 4 3 -2 6 -13 5 -11 0 -14 -3 -6 -6z"/>
<path d="M3507 789 c4 -12 0 -25 -8 -30 -10 -6 -6 -9 15 -9 40 0 27 -10 -20
-16 -22 -3 -48 -7 -59 -9 -11 -2 -27 -4 -34 -4 -11 -1 -12 -4 -4 -12 9 -9 23
-9 54 -1 25 6 49 7 58 2 14 -8 14 -9 1 -14 -8 -2 -22 -7 -30 -9 -8 -3 9 -6 38
-6 60 -1 122 21 122 43 0 17 -44 68 -52 60 -3 -3 -23 2 -43 10 -46 20 -44 20
-38 -5z"/>
<path d="M3388 773 c7 -3 16 -2 19 1 4 3 -2 6 -13 5 -11 0 -14 -3 -6 -6z"/>
<path d="M5916 755 c-3 -9 0 -15 9 -15 9 0 12 6 9 15 -4 8 -7 15 -9 15 -2 0
-5 -7 -9 -15z"/>
<path d="M3355 740 c-4 -7 8 -8 37 -4 57 9 61 14 10 14 -22 0 -44 -5 -47 -10z"/>
<path d="M2494 697 c49 -12 173 -11 161 1 -3 3 -52 7 -108 8 -97 2 -99 1 -53
-9z"/>
<path d="M2820 680 c0 -5 5 -10 10 -10 6 0 10 5 10 10 0 6 -4 10 -10 10 -5 0
-10 -4 -10 -10z"/>
<path d="M1600 645 c53 -17 89 -20 74 -5 -6 6 -35 13 -65 15 l-54 5 45 -15z"/>
<path d="M1813 633 c9 -2 25 -2 35 0 9 3 1 5 -18 5 -19 0 -27 -2 -17 -5z"/>
<path d="M5300 620 c0 -5 5 -10 11 -10 5 0 7 5 4 10 -3 6 -8 10 -11 10 -2 0
-4 -4 -4 -10z"/>
<path d="M833 553 c9 -2 23 -2 30 0 6 3 -1 5 -18 5 -16 0 -22 -2 -12 -5z"/>
<path d="M11876 511 c5 -5 27 -6 49 -1 l40 8 -49 1 c-30 1 -46 -3 -40 -8z"/>
<path d="M4312 488 c-26 -6 -48 -18 -58 -33 -9 -14 -29 -25 -52 -29 -78 -14
-92 -18 -92 -28 0 -16 328 4 379 23 22 9 22 11 8 27 -9 9 -15 21 -14 27 4 21
-99 29 -171 13z"/>
<path d="M3575 468 c-27 -5 -54 -13 -59 -19 -16 -15 35 -10 94 11 59 20 45 24
-35 8z"/>
<path d="M301 462 c-21 -15 2 -23 86 -29 52 -4 74 -3 70 4 -12 19 -135 38
-156 25z"/>
<path d="M3867 429 c-10 -6 -31 -11 -47 -11 -52 -2 -21 -18 35 -18 36 0 55 4
58 14 10 26 -14 34 -46 15z"/>
<path d="M3698 413 c12 -2 32 -2 45 0 12 2 2 4 -23 4 -25 0 -35 -2 -22 -4z"/>
<path d="M301 245 c8 -7 498 -9 506 -2 3 4 -110 7 -252 7 -142 0 -256 -2 -254
-5z"/>
</g>
</svg>
