<svg width="201" height="24" viewBox="0 0 201 38" fill="none" xmlns="http://www.w3.org/2000/svg">
<path d="M27.9097 31.48C28.3897 31.48 28.8164 31.6667 29.1897 32.04C29.5897 32.44 29.7897 32.8933 29.7897 33.4C29.7897 33.96 29.523 34.4933 28.9897 35C28.483 35.5067 27.8164 35.96 26.9897 36.36C26.1897 36.76 25.3364 37.0667 24.4297 37.28C23.5497 37.52 22.7364 37.64 21.9897 37.64C20.363 37.64 19.043 37.48 18.0297 37.16C17.0164 36.84 16.163 36.48 15.4697 36.08C14.7764 35.68 14.0964 35.32 13.4297 35C12.7897 34.68 12.0164 34.52 11.1097 34.52C10.603 34.52 10.1897 34.6 9.86969 34.76C9.54969 34.92 9.21635 35.08 8.86969 35.24C8.52302 35.4267 8.08302 35.52 7.54969 35.52C6.98969 35.52 6.52302 35.3067 6.14969 34.88C5.77635 34.4533 5.58969 33.9867 5.58969 33.48C5.58969 32.6267 5.97635 32.0533 6.74969 31.76L14.5497 28.88L18.1897 29.52L10.8697 32.16L12.5897 31.08C13.5764 31.08 14.443 31.2267 15.1897 31.52C15.963 31.8133 16.6964 32.1467 17.3897 32.52C18.1097 32.92 18.843 33.2667 19.5897 33.56C20.3364 33.8533 21.203 34 22.1897 34C23.0164 34 23.7097 33.8667 24.2697 33.6C24.8297 33.3333 25.2964 33.0667 25.6697 32.8C26.123 32.48 26.5097 32.1733 26.8297 31.88C27.1764 31.6133 27.5364 31.48 27.9097 31.48ZM27.1897 16C27.1897 18.0267 26.8564 19.92 26.1897 21.68C25.523 23.4133 24.5764 24.9333 23.3497 26.24C22.1497 27.5467 20.723 28.5733 19.0697 29.32C17.4164 30.04 15.603 30.4 13.6297 30.4C11.683 30.4 9.88302 30.04 8.22969 29.32C6.57635 28.5733 5.13635 27.5467 3.90969 26.24C2.70969 24.9333 1.77635 23.4133 1.10969 21.68C0.469688 19.92 0.149688 18.0267 0.149688 16C0.149688 13.9733 0.469688 12.0933 1.10969 10.36C1.77635 8.6 2.70969 7.06667 3.90969 5.76C5.13635 4.45333 6.57635 3.44 8.22969 2.72C9.88302 1.97333 11.683 1.6 13.6297 1.6C15.603 1.6 17.4164 1.97333 19.0697 2.72C20.723 3.44 22.1497 4.45333 23.3497 5.76C24.5764 7.06667 25.523 8.6 26.1897 10.36C26.8564 12.0933 27.1897 13.9733 27.1897 16ZM22.8697 16C22.8697 14.0267 22.4697 12.2533 21.6697 10.68C20.8964 9.10667 19.8164 7.86666 18.4297 6.96C17.043 6.05333 15.443 5.6 13.6297 5.6C11.843 5.6 10.2564 6.05333 8.86969 6.96C7.48302 7.86666 6.40302 9.10667 5.62969 10.68C4.85635 12.2267 4.46969 14 4.46969 16C4.46969 17.9733 4.85635 19.7467 5.62969 21.32C6.40302 22.8933 7.48302 24.1333 8.86969 25.04C10.2564 25.9467 11.843 26.4 13.6297 26.4C15.443 26.4 17.043 25.9467 18.4297 25.04C19.8164 24.1333 20.8964 22.8933 21.6697 21.32C22.4697 19.7467 22.8697 17.9733 22.8697 16ZM47.3784 8.96C47.9384 8.96 48.4051 9.16 48.7784 9.56C49.1784 9.93333 49.3784 10.4133 49.3784 11V21.52C49.3784 24.2933 48.6051 26.4667 47.0584 28.04C45.5118 29.5867 43.3251 30.36 40.4984 30.36C37.6984 30.36 35.5251 29.5867 33.9784 28.04C32.4584 26.4667 31.6984 24.2933 31.6984 21.52V11C31.6984 10.4133 31.8851 9.93333 32.2584 9.56C32.6318 9.16 33.1118 8.96 33.6984 8.96C34.2584 8.96 34.7251 9.16 35.0984 9.56C35.4984 9.93333 35.6984 10.4133 35.6984 11V21.52C35.6984 23.2533 36.0984 24.5467 36.8984 25.4C37.7251 26.2533 38.9251 26.68 40.4984 26.68C42.0984 26.68 43.3118 26.2533 44.1384 25.4C44.9651 24.5467 45.3784 23.2533 45.3784 21.52V11C45.3784 10.4133 45.5651 9.93333 45.9384 9.56C46.3118 9.16 46.7918 8.96 47.3784 8.96ZM58.7006 27.96C58.7006 28.5467 58.514 29.04 58.1406 29.44C57.7673 29.8133 57.2873 30 56.7006 30C56.1406 30 55.6606 29.8133 55.2606 29.44C54.8873 29.04 54.7006 28.5467 54.7006 27.96V10.84C54.7006 10.2533 54.8873 9.77333 55.2606 9.4C55.6606 9 56.1406 8.8 56.7006 8.8C57.2873 8.8 57.7673 9 58.1406 9.4C58.514 9.77333 58.7006 10.2533 58.7006 10.84V27.96ZM56.6606 6.16C55.8873 6.16 55.3273 6.02667 54.9806 5.76C54.634 5.46667 54.4606 4.98667 54.4606 4.32V3.68C54.4606 3.01333 54.6473 2.54667 55.0206 2.28C55.394 2.01333 55.954 1.88 56.7006 1.88C57.5006 1.88 58.074 2.02667 58.4206 2.32C58.7673 2.58667 58.9406 3.04 58.9406 3.68V4.32C58.9406 5.01333 58.754 5.49333 58.3806 5.76C58.034 6.02667 57.4606 6.16 56.6606 6.16ZM73.4013 8.48C74.8413 8.48 76.1213 8.64 77.2413 8.96C78.3613 9.25333 79.2279 9.68 79.8413 10.24C80.4813 10.7733 80.8013 11.4 80.8013 12.12C80.8013 12.5733 80.6679 13 80.4013 13.4C80.1346 13.7733 79.7346 13.96 79.2013 13.96C78.8279 13.96 78.5079 13.8933 78.2413 13.76C78.0013 13.6267 77.7746 13.4667 77.5613 13.28C77.3479 13.0933 77.0813 12.9067 76.7613 12.72C76.4679 12.56 76.0279 12.4267 75.4413 12.32C74.8813 12.2133 74.3746 12.16 73.9213 12.16C72.5079 12.16 71.2813 12.48 70.2413 13.12C69.2279 13.76 68.4279 14.6267 67.8413 15.72C67.2813 16.8133 67.0013 18.0533 67.0013 19.44C67.0013 20.8267 67.2813 22.0667 67.8413 23.16C68.4279 24.2533 69.2146 25.12 70.2013 25.76C71.2146 26.4 72.3879 26.72 73.7213 26.72C74.5213 26.72 75.1746 26.6667 75.6813 26.56C76.1879 26.4267 76.6279 26.2667 77.0013 26.08C77.4013 25.84 77.7346 25.6 78.0013 25.36C78.2946 25.0933 78.6946 24.96 79.2013 24.96C79.7879 24.96 80.2279 25.1467 80.5213 25.52C80.8413 25.8667 81.0013 26.3067 81.0013 26.84C81.0013 27.4267 80.6413 28 79.9213 28.56C79.2279 29.0933 78.2946 29.5333 77.1213 29.88C75.9479 30.2267 74.6546 30.4 73.2413 30.4C71.1613 30.4 69.3479 29.92 67.8013 28.96C66.2813 28 65.0946 26.6933 64.2413 25.04C63.4146 23.3867 63.0013 21.52 63.0013 19.44C63.0013 17.3333 63.4413 15.4667 64.3213 13.84C65.2013 12.1867 66.4279 10.88 68.0013 9.92C69.5746 8.96 71.3746 8.48 73.4013 8.48ZM87.1434 30C86.5834 30 86.1034 29.8133 85.7034 29.44C85.3301 29.04 85.1434 28.5467 85.1434 27.96V2.44C85.1434 1.85333 85.3301 1.37333 85.7034 0.999999C86.1034 0.599999 86.5834 0.4 87.1434 0.4C87.7301 0.4 88.2101 0.599999 88.5834 0.999999C88.9568 1.37333 89.1434 1.85333 89.1434 2.44V27.96C89.1434 28.5467 88.9568 29.04 88.5834 29.44C88.2101 29.8133 87.7301 30 87.1434 30ZM100.183 8.88C100.69 8.88 101.13 9.09333 101.503 9.52C101.877 9.94667 102.063 10.3733 102.063 10.8C102.063 11.3333 101.81 11.8267 101.303 12.28L88.7834 23.48L88.6234 18.88L98.7034 9.52C99.1301 9.09333 99.6234 8.88 100.183 8.88ZM100.663 29.96C100.103 29.96 99.6234 29.7333 99.2234 29.28L91.2234 20.84L94.2634 18.04L102.063 26.48C102.49 26.9333 102.703 27.44 102.703 28C102.703 28.5867 102.463 29.0667 101.983 29.44C101.53 29.7867 101.09 29.96 100.663 29.96ZM150.501 1.88C151.034 1.88 151.528 2.08 151.981 2.48C152.434 2.85333 152.661 3.37333 152.661 4.04C152.661 4.22667 152.621 4.45333 152.541 4.72L144.341 28.72C144.208 29.12 143.968 29.4267 143.621 29.64C143.274 29.8533 142.914 29.9733 142.541 30C142.168 30 141.794 29.8933 141.421 29.68C141.048 29.4667 140.768 29.1467 140.581 28.72L134.261 13.92L134.621 14.08L128.381 28.72C128.168 29.1467 127.874 29.4667 127.501 29.68C127.154 29.8933 126.781 30 126.381 30C126.034 29.9733 125.688 29.8533 125.341 29.64C124.994 29.4267 124.754 29.12 124.621 28.72L116.421 4.72C116.341 4.45333 116.301 4.22667 116.301 4.04C116.301 3.37333 116.541 2.85333 117.021 2.48C117.501 2.08 117.994 1.88 118.501 1.88C118.928 1.88 119.314 2 119.661 2.24C120.034 2.45333 120.288 2.77333 120.421 3.2L127.341 23.84H126.621L132.701 8.96C132.888 8.56 133.141 8.24 133.461 8C133.808 7.76 134.194 7.65333 134.621 7.68C135.048 7.65333 135.421 7.76 135.741 8C136.088 8.24 136.341 8.56 136.501 8.96L142.261 23.4L141.661 23.72L148.541 3.2C148.674 2.77333 148.928 2.45333 149.301 2.24C149.674 2 150.074 1.88 150.501 1.88ZM173.196 8.64C173.783 8.64 174.263 8.84 174.636 9.24C175.01 9.61333 175.196 10.0933 175.196 10.68V27.96C175.196 28.5467 175.01 29.04 174.636 29.44C174.263 29.8133 173.783 30 173.196 30C172.636 30 172.156 29.8133 171.756 29.44C171.383 29.04 171.196 28.5467 171.196 27.96V25.08L172.036 25.2C172.036 25.68 171.836 26.2133 171.436 26.8C171.063 27.3867 170.543 27.96 169.876 28.52C169.21 29.0533 168.423 29.5067 167.516 29.88C166.61 30.2267 165.636 30.4 164.596 30.4C162.756 30.4 161.103 29.9333 159.636 29C158.17 28.04 157.01 26.7333 156.156 25.08C155.303 23.4267 154.876 21.5467 154.876 19.44C154.876 17.28 155.303 15.3867 156.156 13.76C157.01 12.1067 158.156 10.8133 159.596 9.88C161.063 8.94667 162.69 8.48 164.476 8.48C165.623 8.48 166.676 8.66666 167.636 9.04C168.623 9.41333 169.476 9.89333 170.196 10.48C170.916 11.0667 171.463 11.6933 171.836 12.36C172.236 13 172.436 13.6133 172.436 14.2L171.196 14.32V10.68C171.196 10.12 171.383 9.64 171.756 9.24C172.156 8.84 172.636 8.64 173.196 8.64ZM165.036 26.72C166.29 26.72 167.396 26.4 168.356 25.76C169.316 25.12 170.063 24.2533 170.596 23.16C171.13 22.04 171.396 20.8 171.396 19.44C171.396 18.0533 171.13 16.8133 170.596 15.72C170.063 14.6267 169.316 13.76 168.356 13.12C167.396 12.48 166.29 12.16 165.036 12.16C163.81 12.16 162.716 12.48 161.756 13.12C160.823 13.76 160.076 14.6267 159.516 15.72C158.983 16.8133 158.716 18.0533 158.716 19.44C158.716 20.8 158.983 22.04 159.516 23.16C160.076 24.2533 160.823 25.12 161.756 25.76C162.716 26.4 163.81 26.72 165.036 26.72ZM184.56 27.96C184.56 28.5467 184.373 29.04 184 29.44C183.627 29.8133 183.147 30 182.56 30C182 30 181.52 29.8133 181.12 29.44C180.747 29.04 180.56 28.5467 180.56 27.96V10.84C180.56 10.2533 180.747 9.77333 181.12 9.4C181.52 9 182 8.8 182.56 8.8C183.147 8.8 183.627 9 184 9.4C184.373 9.77333 184.56 10.2533 184.56 10.84V27.96ZM182.52 6.16C181.747 6.16 181.187 6.02667 180.84 5.76C180.493 5.46667 180.32 4.98667 180.32 4.32V3.68C180.32 3.01333 180.507 2.54667 180.88 2.28C181.253 2.01333 181.813 1.88 182.56 1.88C183.36 1.88 183.933 2.02667 184.28 2.32C184.627 2.58667 184.8 3.04 184.8 3.68V4.32C184.8 5.01333 184.613 5.49333 184.24 5.76C183.893 6.02667 183.32 6.16 182.52 6.16ZM189.661 9.2H199.061C199.594 9.2 200.034 9.38667 200.381 9.76C200.754 10.1067 200.941 10.5467 200.941 11.08C200.941 11.5867 200.754 12.0133 200.381 12.36C200.034 12.7067 199.594 12.88 199.061 12.88H189.661C189.127 12.88 188.674 12.7067 188.301 12.36C187.954 11.9867 187.781 11.5467 187.781 11.04C187.781 10.5067 187.954 10.0667 188.301 9.72C188.674 9.37333 189.127 9.2 189.661 9.2ZM193.861 4C194.447 4 194.927 4.2 195.301 4.6C195.674 4.97333 195.861 5.45333 195.861 6.04V24.6C195.861 25.08 195.941 25.4667 196.101 25.76C196.261 26.0533 196.474 26.2533 196.741 26.36C197.034 26.4667 197.327 26.52 197.621 26.52C197.914 26.52 198.167 26.4667 198.381 26.36C198.621 26.2533 198.901 26.2 199.221 26.2C199.541 26.2 199.834 26.3467 200.101 26.64C200.367 26.9333 200.501 27.3333 200.501 27.84C200.501 28.48 200.154 29 199.461 29.4C198.767 29.8 198.021 30 197.221 30C196.767 30 196.234 29.96 195.621 29.88C195.007 29.8 194.407 29.6 193.821 29.28C193.261 28.96 192.794 28.4533 192.421 27.76C192.047 27.04 191.861 26.04 191.861 24.76V6.04C191.861 5.45333 192.047 4.97333 192.421 4.6C192.821 4.2 193.301 4 193.861 4Z" fill="url(#paint0_linear_136_471)"/>
<defs>
<linearGradient id="paint0_linear_136_471" x1="80.7805" y1="-65.68" x2="168.527" y2="166.995" gradientUnits="userSpaceOnUse">
<stop stop-color="#12A1A7"/>
<stop offset="1" stop-color="#12A1A7" stop-opacity="0"/>
</linearGradient>
</defs>
</svg>
