<svg width="64" height="64" viewBox="0 0 154 151" fill="none" xmlns="http://www.w3.org/2000/svg">
<path d="M52.0001 6.5C52.0001 3.83695 55.5001 0 57.5001 0H96.5001C98.0001 0 101.833 3.3623 102 6C102 7.71917 102.529 12.5672 98 15C93.2757 17.5375 88.0138 23.6981 85.1834 28C80.5312 35.0715 75.9449 36.9026 73.1834 46L70.1834 49C69.6247 50.8408 69.7597 50.6699 69.1834 52.5C65.7172 63.5089 54.7376 73.9945 46.6834 82C38.6729 89.9626 19.758 95.5 0 95.5L6.71148e-05 59.5C6.71148e-05 56.5 2.50007 51.5 8.00007 51.3193H51.8242C51.8242 53 51.9309 39.1631 51.9309 36.5L52.0001 6.5Z" fill="url(#paint0_linear_33_198)"/>
<path d="M0 95.5C0.5 99 5.37791 101.362 8.50007 101.5L24.4191 101.362L44.4191 101.224C44.7213 101.224 45.6338 101.161 45.9191 101.224H46.9191C51.9191 101.224 63.2019 99.1005 68.4191 93.9788C74 88.5 76.9139 85.5 79.9191 77.7242C80.2673 76.8232 81.0719 74.6327 81.4191 73.7242C84.0445 66.8564 84.7096 62.3616 88.4191 56.9594C92.1405 51.5395 94.5162 49.7242 95.5162 48.7242C96.5162 47.7242 102 44.0208 102 44.0208C102.016 44.2242 102 43.5208 102 44.0208L102 6C102 5.5 90.5162 12.7242 87.0162 16.2242C82.5453 20.6951 78.4468 25.389 75.8329 29.3623C71.4426 36.0353 71.0162 37.2242 66.5162 45.7242C65.5381 47.5717 63.819 50.7242 62.9191 52.7242C58.4191 62.7242 54.5 68.5 44.9191 78.2065C36 86.5 20.2372 95.5 0 95.5Z" fill="url(#paint1_radial_33_198)"/>
<path d="M51.4191 104.919C51.4962 105.276 51.5373 105.648 51.5373 106.03V143C51.5373 146.5 54.6972 151 58.6972 151H75.6972H95.1972C98.1972 150.5 101.546 146.663 101.546 144V99.5002C100.243 99.5002 107.258 99.5002 109.697 99.5002H144.879C149.059 99.6265 153.13 95.7431 153.268 92.1168V74.6168V57.4392C153.268 53.1806 149.355 49.3621 145.352 49.3621H127.697L117.697 49.4905L110.08 49.5001C109.918 49.5001 107.865 49.5001 107.697 49.5001C107.548 49.5001 101.41 49.422 101.41 49.422C101.41 49.422 98.29 51.7853 95.4511 55.0974C92.4511 58.5974 91.0767 62.4209 88.4191 69.3622C88.0732 70.265 87.2729 72.4461 86.9191 73.3622C85.4191 80.3622 78.9511 91.7237 72.9511 96.0975C67.4511 100.597 60.3259 104.132 51.4191 104.919Z" fill="url(#paint2_linear_33_198)"/>
<defs>
<linearGradient id="paint0_linear_33_198" x1="-41.5" y1="34" x2="99.6177" y2="161.09" gradientUnits="userSpaceOnUse">
<stop stop-color="#47B1B8"/>
<stop offset="1" stop-color="#FDFFFF"/>
<stop offset="1" stop-color="#067F87"/>
</linearGradient>
<radialGradient id="paint1_radial_33_198" cx="0" cy="0" r="1" gradientUnits="userSpaceOnUse" gradientTransform="translate(97 33.5) rotate(122.975) scale(122.182 124.017)">
<stop stop-color="#53D1D9"/>
<stop offset="0.988071" stop-color="#6AC6CC"/>
</radialGradient>
<linearGradient id="paint2_linear_33_198" x1="120" y1="112.5" x2="84" y2="76" gradientUnits="userSpaceOnUse">
<stop stop-color="#6BC1C6" stop-opacity="0.88"/>
<stop offset="1" stop-color="#16B0B6"/>
</linearGradient>
</defs>
</svg>
